<svg width="30" height="200" xml:space="preserve" xmlns="http://www.w3.org/2000/svg"><defs><linearGradient id="a" x1="15" x2="15" y1=".5" y2="187.5" gradientUnits="userSpaceOnUse"><stop stop-opacity=".41" offset="0"/><stop stop-opacity="0" offset="1"/></linearGradient></defs><path d="m-0.5 0v3h1.168l4.0898 6.5449-4.1406 7.4551h-1.1172v3h1.168l4.0898 6.5449-4.1406 7.4551h-1.1172v3h1.168l4.0898 6.5449-4.1406 7.4551h-1.1172v3h1.168l4.0898 6.5449-4.1406 7.4551h-1.1172v3h1.168l4.0898 6.5449-4.1406 7.4551h-1.1172v3h1.168l4.0898 6.5449-4.1406 7.4551h-1.1172v3h1.168l4.0898 6.5449-4.1406 7.4551h-1.1172v3h1.168l4.0898 6.5449-4.1406 7.4551h-1.1172v3h1.168l4.0898 6.5449-4.1406 7.4551h-1.1172v3h1.168l4.0898 6.5449-4.1406 7.4551h-1.1172v3h1.168l4.0898 6.5449-4.1406 7.4551h-1.1172v3h1.168l4.0898 6.5449-4.1406 7.4551h1.7148l0.91016 1.4551 4.1406-7.4551h8.2344l4.1406 7.4551 0.91016-1.4551h1.7148l-4.1406-7.4551 4.0898-6.5449h9.168v-3h-9.1172l-4.1406-7.4551 4.0898-6.5449h9.168v-3h-9.1172l-4.1406-7.4551 4.0898-6.5449h9.168v-3h-9.1172l-4.1406-7.4551 4.0898-6.5449h9.168v-3h-9.1172l-4.1406-7.4551 4.0898-6.5449h9.168v-3h-9.1172l-4.1406-7.4551 4.0898-6.5449h9.168v-3h-9.1172l-4.1406-7.4551 4.0898-6.5449h9.168v-3h-9.1172l-4.1406-7.4551 4.0898-6.5449h9.168v-3h-9.1172l-4.1406-7.4551 4.0898-6.5449h9.168v-3h-9.1172l-4.1406-7.4551 4.0898-6.5449h9.168v-3h-9.1172l-4.1406-7.4551 4.0898-6.5449h9.168v-3h-9.1172l-4.1406-7.4551 4.0898-6.5449h9.168v-3h-10.832l-5 8h-8.3359l-5-8zm7.8828 11h8.2344l4.1406 7.4551-4.0898 6.5449h-8.3359l-4.0898-6.5449zm0 17h8.2344l4.1406 7.4551-4.0898 6.5449h-8.3359l-4.0898-6.5449zm0 17h8.2344l4.1406 7.4551-4.0898 6.5449h-8.3359l-4.0898-6.5449zm0 17h8.2344l4.1406 7.4551-4.0898 6.5449h-8.3359l-4.0898-6.5449zm0 17h8.2344l4.1406 7.4551-4.0898 6.5449h-8.3359l-4.0898-6.5449zm0 17h8.2344l4.1406 7.4551-4.0898 6.5449h-8.3359l-4.0898-6.5449zm0 17h8.2344l4.1406 7.4551-4.0898 6.5449h-8.3359l-4.0898-6.5449zm0 17h8.2344l4.1406 7.4551-4.0898 6.5449h-8.3359l-4.0898-6.5449zm0 17h8.2344l4.1406 7.4551-4.0898 6.5449h-8.3359l-4.0898-6.5449zm0 17h8.2344l4.1406 7.4551-4.0898 6.5449h-8.3359l-4.0898-6.5449zm0 17h8.2344l4.1406 7.4551-4.0898 6.5449h-8.3359l-4.0898-6.5449z" fill="url(#a)" fill-opacity=".40929"/></svg>
