<svg xmlns="http://www.w3.org/2000/svg" xml:space="preserve" width="76" height="44"><path d="M27 41h22l11-19L49 3H27L16 22Zm38-22h22v6H65L54 44l11 19-5 3-11-19H27L16 66l-5-3 11-19-11-19h-22v-6h22L22 0 11-19l5-3L27-3h22l11-19 5 3L54 0z" style="fill:#fff;fill-opacity:.03137255;stroke:none"/><path d="M27 3 16 22l.4342.75L27 4.5h22l10.5658 18.25L60 22 49 3ZM11-17.5l.6445-.3867L22 0l-.4342.75ZM54 0l.4342.75L65-17.5l-.6504-.3766Zm33 26.5V25H65L54 44l.4342.75L65 26.5ZM21.5658 44.75 22 44 11 25h-22v1.5h22z" style="fill:#000;stroke:none;stroke-width:1px;stroke-linecap:butt;stroke-linejoin:miter;stroke-opacity:1;fill-opacity:.26274511"/></svg>