<?xml version="1.0" encoding="UTF-8" standalone="no"?>
<!-- Created with Inkscape (http://www.inkscape.org/) -->

<svg
   xmlns:dc="http://purl.org/dc/elements/1.1/"
   xmlns:cc="http://creativecommons.org/ns#"
   xmlns:rdf="http://www.w3.org/1999/02/22-rdf-syntax-ns#"
   xmlns:svg="http://www.w3.org/2000/svg"
   xmlns="http://www.w3.org/2000/svg"
   xmlns:sodipodi="http://sodipodi.sourceforge.net/DTD/sodipodi-0.dtd"
   xmlns:inkscape="http://www.inkscape.org/namespaces/inkscape"
   width="20"
   height="20"
   viewBox="0 0 20 20"
   version="1.1"
   id="svg8"
   inkscape:export-filename="D:\Bethesda Game Modding\Mod Organizer 2\stylesheets\Paper\Dark\dots.png"
   inkscape:export-xdpi="307.20001"
   inkscape:export-ydpi="307.20001"
   inkscape:version="0.92.3 (2405546, 2018-03-11)"
   sodipodi:docname="restore.svg">
  <defs
     id="defs2" />
  <sodipodi:namedview
     id="base"
     pagecolor="#505050"
     bordercolor="#666666"
     borderopacity="1.0"
     inkscape:pageopacity="0"
     inkscape:pageshadow="2"
     inkscape:zoom="22.59728"
     inkscape:cx="2.625983"
     inkscape:cy="10.573426"
     inkscape:document-units="px"
     inkscape:current-layer="layer25"
     showgrid="false"
     units="px"
     borderlayer="true"
     inkscape:showpageshadow="false"
     inkscape:snap-page="true"
     inkscape:snap-bbox="true"
     inkscape:bbox-nodes="true"
     inkscape:snap-bbox-edge-midpoints="true"
     inkscape:snap-bbox-midpoints="true"
     showguides="true"
     inkscape:guide-bbox="true"
     inkscape:window-width="1920"
     inkscape:window-height="1027"
     inkscape:window-x="-8"
     inkscape:window-y="-8"
     inkscape:window-maximized="1"
     inkscape:snap-center="true"
     inkscape:snap-object-midpoints="true"
     inkscape:measure-start="18.8975,12.498"
     inkscape:measure-end="20,12.498"
     inkscape:snap-intersection-paths="true"
     inkscape:object-paths="true"
     inkscape:snap-smooth-nodes="true"
     inkscape:snap-midpoints="true"
     inkscape:snap-global="true">
    <sodipodi:guide
       position="10,10"
       orientation="1,0"
       id="guide4039"
       inkscape:locked="false" />
    <sodipodi:guide
       position="10,10"
       orientation="0,1"
       id="guide3935"
       inkscape:locked="false" />
  </sodipodi:namedview>
  <metadata
     id="metadata5">
    <rdf:RDF>
      <cc:Work
         rdf:about="">
        <dc:format>image/svg+xml</dc:format>
        <dc:type
           rdf:resource="http://purl.org/dc/dcmitype/StillImage" />
        <dc:title />
      </cc:Work>
    </rdf:RDF>
  </metadata>
  <g
     inkscape:groupmode="layer"
     id="layer25"
     inkscape:label="Content">
    <path
       style="opacity:1;fill:#ffffff;fill-opacity:1;fill-rule:nonzero;stroke:none;stroke-width:3.00000024;stroke-linecap:butt;stroke-linejoin:miter;stroke-miterlimit:4;stroke-dasharray:none;stroke-dashoffset:120;stroke-opacity:1;paint-order:stroke fill markers"
       d="m 10,-2.5e-7 a 10,10 0 0 1 0.998047,0.05078 A 10,10 0 0 1 19.787109,8.0019518 10,10 0 0 1 20,10 10,10 0 0 1 10,20 10,10 0 0 1 0.2128895,11.998047 h 3.082032 A 7,7 0 0 0 10,17 a 7,7 0 0 0 7,-7 7,7 0 0 0 -0.294922,-1.9980472 7,7 0 0 0 -0.53125,-1.291016 7,7 0 0 0 0,-0.0019 7,7 0 0 0 -0.359375,-0.599609 7,7 0 0 0 -0.417969,-0.5625 7,7 0 0 0 -0.40625,-0.447266 7,7 0 0 0 -0.07422,-0.07813 7,7 0 0 0 -0.435547,-0.390625 7,7 0 0 0 -0.08594,-0.07422 7,7 0 0 0 -0.490234,-0.359375 7,7 0 0 0 -0.07227,-0.05078 7,7 0 0 0 -0.49023,-0.289062 7,7 0 0 0 -0.119141,-0.06836 7,7 0 0 0 -0.439453,-0.203125 7,7 0 0 0 -0.207031,-0.0918 7,7 0 0 0 -0.402344,-0.138672 7,7 0 0 0 -0.259766,-0.08594 7,7 0 0 0 -0.466797,-0.109375 7,7 0 0 0 -0.208984,-0.04687 7,7 0 0 0 -0.458984,-0.06055 7,7 0 0 0 -0.246094,-0.03125 A 7,7 0 0 0 10,2.9999978 a 7,7 0 0 0 -2.0683595,0.314453 7,7 0 0 0 -0.0019,0 7,7 0 0 0 -0.654297,0.240234 7,7 0 0 0 -0.0019,0 7,7 0 0 0 -0.628906,0.304688 7,7 0 0 0 -1.587891,1.197266 l 2.943254,2.945312 H 3.2968745 0.2031245 -5e-7 l 0,-8.00195105 2.933594,2.93359395 a 10,10 0 0 1 0.01172,-0.01172 10,10 0 0 1 0.591797,-0.535156 10,10 0 0 1 0.169922,-0.148438 10,10 0 0 1 0.601564,-0.447265 10,10 0 0 1 0.199218,-0.142579 10,10 0 0 1 0.644532,-0.380859 10,10 0 0 1 0.222656,-0.126953 10,10 0 0 1 0.632812,-0.29492195 10,10 0 0 1 0.283204,-0.126953 10,10 0 0 1 0.623046,-0.216797 10,10 0 0 1 0.328125,-0.109375 10,10 0 0 1 0.601563,-0.144531 10,10 0 0 1 0.375,-0.08398 10,10 0 0 1 0.603516,-0.08203 10,10 0 0 1 0.394531,-0.04883 A 10,10 0 0 1 10,-2.5e-7 Z"
       id="path3956"
       inkscape:connector-curvature="0" />
    <circle
       style="opacity:0.99900004;fill:#ffffff;fill-opacity:1;stroke:#ffffff;stroke-width:0.99999994;stroke-linecap:round;stroke-miterlimit:4;stroke-dasharray:none;stroke-opacity:1;paint-order:markers fill stroke"
       id="path817"
       cx="10"
       cy="10"
       r="2" />
  </g>
</svg>
