<?xml version="1.0" encoding="UTF-8" standalone="no"?>
<!-- Created with Inkscape (http://www.inkscape.org/) -->

<svg
   width="512"
   height="512"
   viewBox="0 0 512 512"
   version="1.1"
   id="svg1"
   xml:space="preserve"
   sodipodi:docname="architechture-1.svg"
   inkscape:version="1.4.2 (ebf0e94, 2025-05-08)"
   xmlns:inkscape="http://www.inkscape.org/namespaces/inkscape"
   xmlns:sodipodi="http://sodipodi.sourceforge.net/DTD/sodipodi-0.dtd"
   xmlns="http://www.w3.org/2000/svg"
   xmlns:svg="http://www.w3.org/2000/svg"><sodipodi:namedview
     id="namedview1"
     pagecolor="#ffffff"
     bordercolor="#000000"
     borderopacity="0.25"
     inkscape:showpageshadow="2"
     inkscape:pageopacity="0.0"
     inkscape:pagecheckerboard="true"
     inkscape:deskcolor="#d1d1d1"
     inkscape:document-units="px"
     showguides="true"
     inkscape:zoom="0.5627852"
     inkscape:cx="3.5537537"
     inkscape:cy="196.34489"
     inkscape:window-width="1920"
     inkscape:window-height="1017"
     inkscape:window-x="-8"
     inkscape:window-y="-8"
     inkscape:window-maximized="1"
     inkscape:current-layer="layer1"
     inkscape:lockguides="true"><sodipodi:guide
       position="-302.06908,500"
       orientation="0,1"
       id="guide1"
       inkscape:locked="true"
       inkscape:label=""
       inkscape:color="rgb(0,134,229)" /><sodipodi:guide
       position="-126.15826,12"
       orientation="0,1"
       id="guide2"
       inkscape:locked="true"
       inkscape:label=""
       inkscape:color="rgb(0,134,229)" /><sodipodi:guide
       position="12,418.71396"
       orientation="-1,0"
       id="guide3"
       inkscape:locked="true"
       inkscape:label=""
       inkscape:color="rgb(0,134,229)" /><sodipodi:guide
       position="500,400.94519"
       orientation="-1,0"
       id="guide4"
       inkscape:locked="true"
       inkscape:label=""
       inkscape:color="rgb(0,134,229)" /></sodipodi:namedview><defs
     id="defs1"><inkscape:path-effect
       effect="bspline"
       id="path-effect2"
       is_visible="true"
       lpeversion="1.3"
       weight="33.333333"
       steps="2"
       helper_size="0"
       apply_no_weight="true"
       apply_with_weight="true"
       only_selected="false"
       uniform="false" /><inkscape:path-effect
       effect="bspline"
       id="path-effect1"
       is_visible="true"
       lpeversion="1.3"
       weight="33.333333"
       steps="2"
       helper_size="0"
       apply_no_weight="true"
       apply_with_weight="true"
       only_selected="false"
       uniform="false" /><inkscape:path-effect
       effect="bspline"
       id="path-effect5"
       is_visible="true"
       lpeversion="1.3"
       weight="33.333333"
       steps="2"
       helper_size="0"
       apply_no_weight="true"
       apply_with_weight="true"
       only_selected="false"
       uniform="false" /><inkscape:path-effect
       effect="bspline"
       id="path-effect4"
       is_visible="true"
       lpeversion="1.3"
       weight="33.333333"
       steps="2"
       helper_size="0"
       apply_no_weight="true"
       apply_with_weight="true"
       only_selected="false"
       uniform="false" /></defs><g
     inkscape:label="Layer 1"
     inkscape:groupmode="layer"
     id="layer1"><path
       style="display:inline;fill:#020202;stroke:none;stroke-width:0.953585"
       d="m 253.46597,12.028493 c -7.10776,1.742196 -13.89004,7.636597 -20.02529,11.457719 -13.04363,8.12375 -26.03537,16.332184 -39.097,24.426804 -46.19736,28.629673 -92.07247,57.780114 -138.269855,86.409814 -16.913694,10.48184 -59.6799984,28.83646 -38.236117,54.37203 8.584441,10.22243 21.487775,8.74781 33.46819,8.74781 h 77.240402 246.97858 73.42606 c 10.96382,0 24.84114,2.25243 35.28265,-1.47673 16.99493,-6.06968 21.47429,-27.4553 7.61471,-39.21399 C 474.33668,141.89482 451.28837,130.99081 431.7864,118.84474 392.97012,94.669452 354.13521,70.509417 315.44901,46.126499 301.18012,37.133178 286.87436,28.19029 272.53767,19.305459 c -5.59984,-3.470366 -12.01059,-9.007725 -19.0717,-7.276966 m -0.95359,69.352722 c 43.51356,-5.651873 53.39443,63.838235 9.53585,69.159925 -45.99446,5.58087 -55.73666,-63.158986 -9.53585,-69.159925 m 1.90717,11.623275 c -30.26011,3.428285 -25.477,49.71488 4.76793,46.09363 29.0792,-3.48169 24.28121,-49.384733 -4.76793,-46.09363 M 58.93458,208.8857 c 0.07981,9.63872 3.445571,18.83424 10.575527,25.57021 3.662769,3.46038 11.268679,5.24946 12.169245,10.70723 2.38156,14.43299 0.141274,31.08965 0.141274,45.73089 v 95.35852 C 67.219271,389.07614 59.0482,404.94903 58.93458,418.67445 h 78.19399 l 38.14341,-0.95359 c -2.08127,-8.64181 -3.22477,-16.08238 -9.62487,-22.87207 -3.71693,-3.94317 -12.48859,-7.1009 -13.91162,-12.45179 -2.32007,-8.7239 -0.30314,-20.49516 -0.30314,-29.51993 v -63.89021 c 0,-13.29718 -3.10922,-30.9926 0.30314,-43.82372 1.42303,-5.35084 10.19468,-8.50858 13.91162,-12.45178 6.40007,-6.78964 7.54361,-14.2303 9.62487,-22.87208 L 137.12857,208.8857 H 58.93458 m 139.22344,0 c 0.40055,9.30476 3.79866,18.90323 10.65499,25.45984 3.69544,3.53389 11.48366,5.56183 12.8815,10.8176 3.41254,12.83089 0.30314,30.52672 0.30314,43.82372 0,30.10149 1.28969,60.52021 -0.0184,90.58987 -0.34604,7.95446 -9.18492,9.47482 -14.10952,14.47005 -6.43983,6.53219 -9.32477,15.63903 -9.71172,24.62767 h 116.3374 c -0.38963,-9.05051 -3.45815,-17.99782 -9.82206,-24.62767 -4.85698,-5.05995 -13.65355,-6.5242 -13.99917,-14.47005 -1.30799,-30.06975 -0.0184,-60.48827 -0.0184,-90.58987 0,-13.29697 -3.10942,-30.99286 0.30315,-43.82372 1.39784,-5.25574 9.18606,-7.28374 12.88148,-10.8176 6.85635,-6.55661 10.25442,-16.15511 10.655,-25.45984 h -116.3374 m 139.22344,0.95358 c 2.08128,8.64184 3.22475,16.08238 9.62487,22.87208 3.71694,3.9432 12.48857,7.1009 13.91161,12.45178 2.32009,8.7239 0.30315,20.49519 0.30315,29.51994 v 63.89021 c 0,13.29717 3.10925,30.9926 -0.30315,43.82371 -1.42304,5.35091 -10.19464,8.50859 -13.91161,12.45179 -6.40009,6.78969 -7.54362,14.23026 -9.62487,22.87207 l 38.14341,0.95359 h 78.19399 c -0.11361,-13.72545 -8.28469,-29.59831 -22.88605,-32.4219 v -95.35852 c 0,-14.64124 -2.2403,-31.2979 0.14126,-45.73089 0.90056,-5.45774 8.50651,-7.24688 12.16927,-10.70723 7.12992,-6.73594 10.49575,-15.93146 10.57552,-25.57021 h -78.19399 l -38.14341,0.95358 M 41.770027,430.62223 c -25.333574,5.81536 -26.129961,58.86348 -2.860756,67.4757 9.947468,3.68173 22.90054,1.63126 33.375483,1.63126 h 67.704556 229.81404 74.37964 c 10.97668,0 24.62612,2.28986 34.3254,-3.94162 18.70425,-12.01693 15.71591,-61.09669 -8.5786,-65.35666 -9.38679,-1.64592 -20.03954,-0.31344 -29.56114,-0.31344 H 382.19995 201.01876 93.263629 c -16.095508,0 -35.808098,-3.09589 -51.493602,0.50476 z"
       id="path1" /></g></svg>
