<?xml version="1.0" encoding="UTF-8" standalone="no"?>
<!-- Created with Inkscape (http://www.inkscape.org/) -->

<svg
   width="512"
   height="512"
   viewBox="0 0 512 512"
   version="1.1"
   id="svg1"
   xml:space="preserve"
   sodipodi:docname="palette-2.svg"
   inkscape:version="1.4.2 (ebf0e94, 2025-05-08)"
   xmlns:inkscape="http://www.inkscape.org/namespaces/inkscape"
   xmlns:sodipodi="http://sodipodi.sourceforge.net/DTD/sodipodi-0.dtd"
   xmlns="http://www.w3.org/2000/svg"
   xmlns:svg="http://www.w3.org/2000/svg"><sodipodi:namedview
     id="namedview1"
     pagecolor="#ffffff"
     bordercolor="#000000"
     borderopacity="0.25"
     inkscape:showpageshadow="2"
     inkscape:pageopacity="0.0"
     inkscape:pagecheckerboard="true"
     inkscape:deskcolor="#d1d1d1"
     inkscape:document-units="px"
     showguides="true"
     inkscape:zoom="0.5627852"
     inkscape:cx="243.43213"
     inkscape:cy="171.46862"
     inkscape:window-width="1920"
     inkscape:window-height="1017"
     inkscape:window-x="-8"
     inkscape:window-y="-8"
     inkscape:window-maximized="1"
     inkscape:current-layer="layer1"
     inkscape:lockguides="true"><sodipodi:guide
       position="-302.06908,500"
       orientation="0,1"
       id="guide1"
       inkscape:locked="true"
       inkscape:label=""
       inkscape:color="rgb(0,134,229)" /><sodipodi:guide
       position="-126.15826,12"
       orientation="0,1"
       id="guide2"
       inkscape:locked="true"
       inkscape:label=""
       inkscape:color="rgb(0,134,229)" /><sodipodi:guide
       position="12,418.71396"
       orientation="-1,0"
       id="guide3"
       inkscape:locked="true"
       inkscape:label=""
       inkscape:color="rgb(0,134,229)" /><sodipodi:guide
       position="500,400.94519"
       orientation="-1,0"
       id="guide4"
       inkscape:locked="true"
       inkscape:label=""
       inkscape:color="rgb(0,134,229)" /></sodipodi:namedview><defs
     id="defs1"><inkscape:path-effect
       effect="bspline"
       id="path-effect1"
       is_visible="true"
       lpeversion="1.3"
       weight="33.333333"
       steps="2"
       helper_size="0"
       apply_no_weight="true"
       apply_with_weight="true"
       only_selected="false"
       uniform="false" /><inkscape:path-effect
       effect="bspline"
       id="path-effect5"
       is_visible="true"
       lpeversion="1.3"
       weight="33.333333"
       steps="2"
       helper_size="0"
       apply_no_weight="true"
       apply_with_weight="true"
       only_selected="false"
       uniform="false" /><inkscape:path-effect
       effect="bspline"
       id="path-effect4"
       is_visible="true"
       lpeversion="1.3"
       weight="33.333333"
       steps="2"
       helper_size="0"
       apply_no_weight="true"
       apply_with_weight="true"
       only_selected="false"
       uniform="false" /></defs><g
     inkscape:label="Layer 1"
     inkscape:groupmode="layer"
     id="layer1"><path
       style="fill:#020202;stroke:none;stroke-width:0.949803"
       d="m 240.59037,12.973605 c -30.10805,3.953156 -58.2702,7.910284 -86.4321,20.361408 C 81.72655,65.35896 29.882896,133.49784 15.890071,211.07941 -5.2535182,328.30763 61.435086,448.67886 176.00374,486.83897 c 24.00627,7.99591 53.384,14.88616 78.83368,11.75895 5.85858,-0.71989 11.75126,-2.24619 17.09645,-4.78714 18.98172,-9.02339 25.26255,-31.1946 18.33503,-50.02957 -3.09835,-8.42396 -9.77822,-14.81914 -13.7663,-22.79528 -7.70405,-15.40809 -4.08684,-32.43659 7.81684,-44.62683 20.74102,-21.2403 61.20523,-13.11218 88.29359,-14.29836 37.79372,-1.65494 76.10115,-19.02864 99.25151,-49.35237 35.09538,-45.97008 31.22695,-110.9456 8.89342,-161.46657 C 448.22804,77.655533 377.77247,29.166551 299.47817,16.293511 280.7039,13.206679 259.57594,10.480836 240.59037,12.973605 M 192.1504,71.733176 c 43.68729,-5.691226 66.04817,53.380814 29.44391,77.990864 -5.94802,3.999 -12.88705,6.08003 -19.94588,6.94467 -53.70516,6.57848 -63.40603,-77.912822 -9.49803,-84.935534 m 113.97639,0 c 43.68727,-5.691226 66.0482,53.380814 29.4439,77.990864 -5.948,3.999 -12.88704,6.08003 -19.94586,6.94467 -53.70511,6.57848 -63.40606,-77.912822 -9.49804,-84.935534 M 106.66811,157.21547 c 43.68732,-5.69123 66.04817,53.3808 29.4439,77.99085 -5.94802,3.99902 -12.88705,6.08005 -19.94587,6.94468 -53.705153,6.57848 -63.406055,-77.91281 -9.49803,-84.93553 m 284.94098,0 c 43.68727,-5.69123 66.0482,53.3808 29.4439,77.99085 -5.94802,3.99902 -12.88705,6.08005 -19.94586,6.94468 -53.70511,6.57848 -63.40605,-77.91281 -9.49804,-84.93553 M 120.91515,271.19186 c 43.68738,-5.69125 66.04812,53.38084 29.4439,77.99086 -5.94798,3.99901 -12.88704,6.08004 -19.94586,6.94471 -53.705145,6.57848 -63.406046,-77.91289 -9.49804,-84.93557 z"
       id="path1" /></g></svg>
