<?xml version="1.0" encoding="UTF-8" standalone="no"?>
<!-- Created with Inkscape (http://www.inkscape.org/) -->

<svg
   width="512"
   height="512"
   viewBox="0 0 512 512"
   version="1.1"
   id="svg1"
   xml:space="preserve"
   sodipodi:docname="cinema-1.svg"
   inkscape:version="1.4.2 (ebf0e94, 2025-05-08)"
   xmlns:inkscape="http://www.inkscape.org/namespaces/inkscape"
   xmlns:sodipodi="http://sodipodi.sourceforge.net/DTD/sodipodi-0.dtd"
   xmlns="http://www.w3.org/2000/svg"
   xmlns:svg="http://www.w3.org/2000/svg"><sodipodi:namedview
     id="namedview1"
     pagecolor="#ffffff"
     bordercolor="#000000"
     borderopacity="0.25"
     inkscape:showpageshadow="2"
     inkscape:pageopacity="0.0"
     inkscape:pagecheckerboard="true"
     inkscape:deskcolor="#d1d1d1"
     inkscape:document-units="px"
     showguides="true"
     inkscape:zoom="0.70710678"
     inkscape:cx="76.367532"
     inkscape:cy="325.97622"
     inkscape:window-width="1920"
     inkscape:window-height="1017"
     inkscape:window-x="-8"
     inkscape:window-y="-8"
     inkscape:window-maximized="1"
     inkscape:current-layer="layer1"
     inkscape:lockguides="false"><sodipodi:guide
       position="-302.06908,500"
       orientation="0,1"
       id="guide1"
       inkscape:locked="false"
       inkscape:label=""
       inkscape:color="rgb(0,134,229)" /><sodipodi:guide
       position="-126.15826,12"
       orientation="0,1"
       id="guide2"
       inkscape:locked="false"
       inkscape:label=""
       inkscape:color="rgb(0,134,229)" /><sodipodi:guide
       position="12,418.71396"
       orientation="-1,0"
       id="guide3"
       inkscape:locked="false"
       inkscape:label=""
       inkscape:color="rgb(0,134,229)" /><sodipodi:guide
       position="500,400.94519"
       orientation="-1,0"
       id="guide4"
       inkscape:locked="false"
       inkscape:label=""
       inkscape:color="rgb(0,134,229)" /><sodipodi:guide
       position="256,556.42192"
       orientation="-1,0"
       id="guide5"
       inkscape:locked="false"
       inkscape:label=""
       inkscape:color="rgb(0,134,229)" /></sodipodi:namedview><defs
     id="defs1"><inkscape:path-effect
       effect="bspline"
       id="path-effect1"
       is_visible="true"
       lpeversion="1.3"
       weight="33.333333"
       steps="2"
       helper_size="0"
       apply_no_weight="true"
       apply_with_weight="true"
       only_selected="false"
       uniform="false" /><inkscape:path-effect
       effect="bspline"
       id="path-effect5"
       is_visible="true"
       lpeversion="1.3"
       weight="33.333333"
       steps="2"
       helper_size="0"
       apply_no_weight="true"
       apply_with_weight="true"
       only_selected="false"
       uniform="false" /><inkscape:path-effect
       effect="bspline"
       id="path-effect4"
       is_visible="true"
       lpeversion="1.3"
       weight="33.333333"
       steps="2"
       helper_size="0"
       apply_no_weight="true"
       apply_with_weight="true"
       only_selected="false"
       uniform="false" /></defs><g
     inkscape:label="Layer 1"
     inkscape:groupmode="layer"
     id="layer1"><path
       id="path1"
       style="display:inline;fill:#000000;stroke:none"
       d="M 256.48242 30.646484 C 241.03577 30.54015 225.38643 32.037628 209.74414 35.277344 C 185.81761 40.232819 162.65559 49.2612 141.74414 61.875 C 34.069084 126.82462 -1.6822406 272.66528 68.412109 378.27539 C 81.661099 398.23746 97.731684 416.68481 116.74414 431.38672 C 153.93465 460.14526 197.15411 475.65375 243.74414 480.10547 C 272.20823 482.8252 302.37833 476.59386 330.74414 480.27539 L 395.20898 488.64258 C 395.39349 488.67829 395.57917 488.70998 395.76758 488.73438 L 465.57812 497.77539 L 482.72461 500 L 482.72461 499.99414 L 489.08203 500.81836 C 495.13057 501.60166 500.78454 496.16919 501.75977 488.63867 L 502.04492 486.44336 C 503.02015 478.91285 498.89965 472.45876 492.88672 471.4375 L 392.75781 454.43164 L 392.75 454.42969 L 368.74414 450.27539 C 400.98571 430.53894 428.22094 405.55762 448.31836 373.27539 C 462.2366 350.91867 471.95214 326.08246 477.14453 300.27539 C 482.31399 274.58227 483.15485 248.20819 479.31641 222.27539 C 462.81448 110.78739 364.60896 31.390828 256.48242 30.646484 z M 256.01172 90.085938 C 309.06914 87.892465 318.97285 172.66131 262.74414 179.98633 C 216.29242 186.03769 192.99539 123.75394 231.74414 97.634766 C 237.42054 93.808503 243.96821 91.542329 250.74414 90.574219 C 252.54471 90.316961 254.30019 90.156695 256.01172 90.085938 z M 257.07422 120.39844 C 256.01502 120.41633 254.90385 120.54809 253.74414 120.81055 C 235.11613 125.02638 241.18884 153.93765 259.74414 149.73828 C 277.20791 145.78594 272.96225 120.12999 257.07422 120.39844 z M 142.01953 174.13867 C 195.14667 172.55437 204.97988 256.6604 148.74414 263.98633 C 91.044384 271.50299 78.694334 182.1267 136.74414 174.56445 C 138.54726 174.32956 140.30575 174.18978 142.01953 174.13867 z M 370.01953 174.13867 C 423.14664 172.55437 432.97994 256.6604 376.74414 263.98633 C 319.0444 271.50299 306.69427 182.1267 364.74414 174.56445 C 366.54726 174.32956 368.30575 174.18978 370.01953 174.13867 z M 143.07422 204.39844 C 142.01502 204.41633 140.90384 204.54809 139.74414 204.81055 C 121.11614 209.02638 127.18884 237.93765 145.74414 233.73828 C 163.20792 229.78594 158.96224 204.12999 143.07422 204.39844 z M 371.07422 204.39844 C 370.01501 204.41633 368.90385 204.54809 367.74414 204.81055 C 349.11612 209.02634 355.18887 237.93762 373.74414 233.73828 C 391.20785 229.78598 386.96228 204.12999 371.07422 204.39844 z M 241.74414 240.27539 L 271.74414 240.27539 L 271.74414 270.27539 L 241.74414 270.27539 L 241.74414 240.27539 z M 326.02344 306.13672 C 379.19174 304.54705 389.10272 388.6444 332.74414 395.98633 C 275.19632 403.48322 262.91977 314.09732 320.74414 306.56445 C 322.5485 306.3294 324.30833 306.188 326.02344 306.13672 z M 188.17969 307.10742 C 229.16215 308.55316 251.23431 364.80736 212.74414 389.72656 C 206.66189 393.66433 199.86865 395.82318 192.74414 396.8457 C 137.07913 404.83465 123.68442 315.65582 179.74414 307.57422 C 182.63206 307.15789 185.44752 307.01104 188.17969 307.10742 z M 327.10742 336.37891 C 326.03757 336.40221 324.91576 336.5421 323.74414 336.8125 C 305.06805 341.12268 311.33511 369.77304 329.74414 365.74219 C 347.41682 361.87256 343.15523 336.02939 327.10742 336.37891 z M 188.67578 337.28906 C 187.13408 337.2121 185.48627 337.37703 183.74414 337.83203 C 165.13513 342.69226 173.48303 371.59412 191.74414 366.32812 C 208.51141 361.49295 203.57887 338.03308 188.67578 337.28906 z " /></g></svg>
