<?xml version="1.0" encoding="UTF-8" standalone="no"?>
<!-- Created with Inkscape (http://www.inkscape.org/) -->

<svg
   width="512"
   height="512"
   viewBox="0 0 512 512"
   version="1.1"
   id="svg1"
   xml:space="preserve"
   sodipodi:docname="star-eye-4.svg"
   inkscape:version="1.4.2 (ebf0e94, 2025-05-08)"
   xmlns:inkscape="http://www.inkscape.org/namespaces/inkscape"
   xmlns:sodipodi="http://sodipodi.sourceforge.net/DTD/sodipodi-0.dtd"
   xmlns="http://www.w3.org/2000/svg"
   xmlns:svg="http://www.w3.org/2000/svg"><sodipodi:namedview
     id="namedview1"
     pagecolor="#ffffff"
     bordercolor="#000000"
     borderopacity="0.25"
     inkscape:showpageshadow="2"
     inkscape:pageopacity="0.0"
     inkscape:pagecheckerboard="true"
     inkscape:deskcolor="#d1d1d1"
     inkscape:document-units="px"
     showguides="true"
     inkscape:zoom="0.79589846"
     inkscape:cx="193.49202"
     inkscape:cy="204.17177"
     inkscape:window-width="1920"
     inkscape:window-height="1017"
     inkscape:window-x="-8"
     inkscape:window-y="-8"
     inkscape:window-maximized="1"
     inkscape:current-layer="layer1"
     inkscape:lockguides="false"><sodipodi:guide
       position="-552.6087,500"
       orientation="0,1"
       id="guide1"
       inkscape:locked="false"
       inkscape:label=""
       inkscape:color="rgb(0,134,229)" /><sodipodi:guide
       position="-358.92913,12"
       orientation="0,1"
       id="guide2"
       inkscape:locked="false"
       inkscape:label=""
       inkscape:color="rgb(0,134,229)" /><sodipodi:guide
       position="12,274.53252"
       orientation="-1,0"
       id="guide3"
       inkscape:locked="false"
       inkscape:label=""
       inkscape:color="rgb(0,134,229)" /><sodipodi:guide
       position="500,408.71111"
       orientation="-1,0"
       id="guide4"
       inkscape:locked="false"
       inkscape:label=""
       inkscape:color="rgb(0,134,229)" /></sodipodi:namedview><defs
     id="defs1"><inkscape:path-effect
       effect="skeletal"
       id="path-effect1080"
       is_visible="true"
       lpeversion="1"
       pattern="m 674.87737,12 c 12.68214,0 30.42333,17.006763 22.89196,30.931015 l -15.43518,28.537087 c -7.53137,13.924253 -7.54628,102.766028 -7.54628,102.766028 0,0 -22.80246,-74.608525 -22.80246,-91.744308 V 42.931015 C 651.98541,25.795233 662.19523,12 674.87737,12 Z"
       copytype="repeated_stretched"
       prop_scale="1"
       scale_y_rel="false"
       spacing="8"
       normal_offset="0"
       tang_offset="8"
       prop_units="false"
       vertical_pattern="false"
       hide_knot="false"
       fuse_tolerance="0" /><inkscape:path-effect
       effect="skeletal"
       id="path-effect1079"
       is_visible="true"
       lpeversion="1"
       pattern="m 674.87737,12 c 12.68214,0 30.42333,17.006763 22.89196,30.931015 l -15.43518,28.537087 c -7.53137,13.924253 -7.54628,102.766028 -7.54628,102.766028 0,0 -22.80246,-74.608525 -22.80246,-91.744308 V 42.931015 C 651.98541,25.795233 662.19523,12 674.87737,12 Z"
       copytype="repeated_stretched"
       prop_scale="0.7"
       scale_y_rel="false"
       spacing="12"
       normal_offset="0"
       tang_offset="0"
       prop_units="false"
       vertical_pattern="false"
       hide_knot="false"
       fuse_tolerance="1" /><inkscape:path-effect
       effect="skeletal"
       id="path-effect1078"
       is_visible="true"
       lpeversion="1"
       pattern="m 674.87737,12 c 12.68214,0 30.42333,17.006763 22.89196,30.931015 l -15.43518,28.537087 c -7.53137,13.924253 -7.54628,102.766028 -7.54628,102.766028 0,0 -22.80246,-74.608525 -22.80246,-91.744308 V 42.931015 C 651.98541,25.795233 662.19523,12 674.87737,12 Z"
       copytype="repeated_stretched"
       prop_scale="1"
       scale_y_rel="false"
       spacing="0"
       normal_offset="0"
       tang_offset="0"
       prop_units="false"
       vertical_pattern="false"
       hide_knot="false"
       fuse_tolerance="0" /><inkscape:path-effect
       effect="bspline"
       id="path-effect1"
       is_visible="true"
       lpeversion="1.3"
       weight="33.333333"
       steps="2"
       helper_size="0"
       apply_no_weight="true"
       apply_with_weight="true"
       only_selected="false"
       uniform="false" /><inkscape:path-effect
       effect="bspline"
       id="path-effect5"
       is_visible="true"
       lpeversion="1.3"
       weight="33.333333"
       steps="2"
       helper_size="0"
       apply_no_weight="true"
       apply_with_weight="true"
       only_selected="false"
       uniform="false" /><inkscape:path-effect
       effect="bspline"
       id="path-effect4"
       is_visible="true"
       lpeversion="1.3"
       weight="33.333333"
       steps="2"
       helper_size="0"
       apply_no_weight="true"
       apply_with_weight="true"
       only_selected="false"
       uniform="false" /></defs><g
     inkscape:label="Layer 1"
     inkscape:groupmode="layer"
     id="layer1"><path
       style="display:inline;fill:#020202;stroke:none;stroke-width:1.25551"
       d="m 217.34263,111.09281 c -20.99919,5.95263 -40.79621,15.54324 -59.52976,26.63567 -41.1796,24.74869 -75.805524,59.42074 -103.374565,98.57311 -11.979876,17.01986 -22.677311,34.90786 -32.770222,53.09862 -4.132357,7.4517 -7.872628,15.11 -11.8643016,22.63487 -2.083895,4.12474 -3.376186,9.36952 -0.817639,13.58908 3.1569616,5.29734 9.0939996,7.76239 13.9958456,11.09361 19.181989,12.84758 39.712785,23.49293 60.319516,33.83433 39.531436,19.27333 82.130016,33.13819 126.084476,37.06646 35.77503,3.25122 72.37888,-0.66342 106.21428,-12.95829 30.60491,-11.04333 58.45253,-28.89166 82.67618,-50.48111 30.67176,-27.23451 55.96436,-60.05451 77.23142,-95.00851 7.96397,-13.11004 15.6396,-26.40889 22.51764,-40.12539 2.3991,-5.11914 6.11132,-9.92972 6.38688,-15.77652 0.31511,-4.88133 -3.2542,-8.89906 -7.01515,-11.51269 -4.08519,-2.74342 -8.36147,-5.19232 -12.43427,-7.95892 -15.54825,-10.16615 -31.99902,-18.85404 -48.52666,-27.29913 -36.30117,-18.56191 -75.09647,-32.76967 -115.40843,-39.44147 -34.3304,-5.66449 -70.02984,-5.42214 -103.68524,4.03628 z m 12.72194,41.41809 c 23.6482,-5.72418 49.17474,-2.55858 70.95466,8.17812 27.51484,13.36033 49.52751,38.16747 58.40175,67.55663 6.39632,20.88456 5.55988,43.83268 -2.11632,64.26458 -7.48419,20.52374 -21.03224,38.93802 -38.99038,51.48691 -23.21894,16.45334 -53.22553,23.31994 -81.20522,17.6785 -29.0862,-5.66888 -55.20146,-24.02304 -71.161,-48.8902 -12.96304,-20.04175 -19.20121,-44.50402 -16.58572,-68.29312 1.80461,-17.80062 8.19967,-35.15359 18.71002,-49.66188 12.16762,-17.21942 29.31125,-31.07295 49.15952,-38.39433 4.18762,-1.58397 8.48571,-2.86001 12.83269,-3.92521 z m 12.22248,52.99438 c -5.4714,1.88815 -8.62593,7.3531 -10.19839,12.61868 -1.99899,5.97381 -2.74718,12.6839 -6.93439,17.66027 -5.89318,6.38355 -15.16012,8.31209 -20.82731,14.9563 -3.07683,3.45072 -3.4508,8.77587 -1.16285,12.74217 3.20624,5.81677 9.18772,9.19563 14.30386,13.1123 3.62891,2.70416 7.31654,5.82113 8.79269,10.26081 2.69189,7.17813 2.12577,15.28306 5.68667,22.17635 1.85623,3.66268 5.77675,6.47982 10.01114,5.99539 5.43302,-0.3972 9.65297,-4.25894 13.77755,-7.4125 4.5012,-3.56175 9.47049,-7.45858 15.48429,-7.55706 7.6395,-0.25977 15.17564,2.98907 22.80914,1.42376 4.20773,-0.80151 8.1077,-4.07431 8.65608,-8.47997 0.78629,-5.48529 -1.40387,-10.80137 -3.12104,-15.89991 -1.71149,-5.01818 -3.82583,-10.32228 -2.64738,-15.70595 1.42916,-8.09558 6.78164,-14.94849 7.861,-23.13108 0.62442,-4.36792 -0.9102,-9.33974 -4.91123,-11.62806 -5.0843,-3.1083 -11.29048,-2.42887 -16.98127,-2.40021 -5.16009,0.12363 -10.77876,-0.14898 -15.01567,-3.47169 -5.53753,-4.17697 -9.93043,-9.76881 -15.86068,-13.45027 -2.88816,-1.69969 -6.3943,-2.91996 -9.72221,-1.80933 z"
       id="path3"
       sodipodi:nodetypes="ccccccccccccccccccccccccccccccccccccccccccccccccccc" /></g></svg>
