<?xml version="1.0" encoding="UTF-8" standalone="no"?>
<!-- Created with Inkscape (http://www.inkscape.org/) -->

<svg
   width="512"
   height="512"
   viewBox="0 0 512 512"
   version="1.1"
   id="svg1"
   xml:space="preserve"
   sodipodi:docname="cute-1.svg"
   inkscape:version="1.4.2 (ebf0e94, 2025-05-08)"
   xmlns:inkscape="http://www.inkscape.org/namespaces/inkscape"
   xmlns:sodipodi="http://sodipodi.sourceforge.net/DTD/sodipodi-0.dtd"
   xmlns="http://www.w3.org/2000/svg"
   xmlns:svg="http://www.w3.org/2000/svg"><sodipodi:namedview
     id="namedview1"
     pagecolor="#ffffff"
     bordercolor="#000000"
     borderopacity="0.25"
     inkscape:showpageshadow="2"
     inkscape:pageopacity="0.0"
     inkscape:pagecheckerboard="true"
     inkscape:deskcolor="#d1d1d1"
     inkscape:document-units="px"
     showguides="true"
     inkscape:zoom="0.79589846"
     inkscape:cx="251.28834"
     inkscape:cy="282.07116"
     inkscape:window-width="1920"
     inkscape:window-height="1017"
     inkscape:window-x="-8"
     inkscape:window-y="-8"
     inkscape:window-maximized="1"
     inkscape:current-layer="layer1"
     inkscape:lockguides="true"><sodipodi:guide
       position="-302.06908,500"
       orientation="0,1"
       id="guide1"
       inkscape:locked="true"
       inkscape:label=""
       inkscape:color="rgb(0,134,229)" /><sodipodi:guide
       position="-126.15826,12"
       orientation="0,1"
       id="guide2"
       inkscape:locked="true"
       inkscape:label=""
       inkscape:color="rgb(0,134,229)" /><sodipodi:guide
       position="12,418.71396"
       orientation="-1,0"
       id="guide3"
       inkscape:locked="true"
       inkscape:label=""
       inkscape:color="rgb(0,134,229)" /><sodipodi:guide
       position="500,400.94519"
       orientation="-1,0"
       id="guide4"
       inkscape:locked="true"
       inkscape:label=""
       inkscape:color="rgb(0,134,229)" /></sodipodi:namedview><defs
     id="defs1"><inkscape:path-effect
       effect="bspline"
       id="path-effect3"
       is_visible="true"
       lpeversion="1.3"
       weight="33.333333"
       steps="2"
       helper_size="0"
       apply_no_weight="true"
       apply_with_weight="true"
       only_selected="false"
       uniform="false" /><inkscape:path-effect
       effect="bspline"
       id="path-effect1"
       is_visible="true"
       lpeversion="1.3"
       weight="33.333333"
       steps="2"
       helper_size="0"
       apply_no_weight="true"
       apply_with_weight="true"
       only_selected="false"
       uniform="false" /><inkscape:path-effect
       effect="bspline"
       id="path-effect5"
       is_visible="true"
       lpeversion="1.3"
       weight="33.333333"
       steps="2"
       helper_size="0"
       apply_no_weight="true"
       apply_with_weight="true"
       only_selected="false"
       uniform="false" /><inkscape:path-effect
       effect="bspline"
       id="path-effect4"
       is_visible="true"
       lpeversion="1.3"
       weight="33.333333"
       steps="2"
       helper_size="0"
       apply_no_weight="true"
       apply_with_weight="true"
       only_selected="false"
       uniform="false" /></defs><g
     inkscape:label="Layer 1"
     inkscape:groupmode="layer"
     id="layer1"><path
       id="rect1"
       style="display:inline;opacity:1;stroke-width:2.71885;stroke-linecap:round;stroke-linejoin:round;fill:#000000"
       d="M 364.8418 44.304688 C 326.90484 44.879719 291.92697 62.794162 273.13672 95.339844 C 272.04928 94.35126 262.31523 120.81598 252.17188 122.00391 C 242.77569 123.10434 240.87678 107.05775 234.11133 98.070312 C 197.949 50.031136 132.53948 31.38647 73.78125 65.310547 C 15.023026 99.234621 -0.82148392 164.90773 21.986328 220.54297 C 50.634059 290.42356 57.970531 303.14716 143.89844 412.54297 C 152.27771 423.21073 193.03518 459.9798 239.11914 466.35547 C 275.28412 473.72064 318.85346 450.41362 360.61523 410.88086 C 409.08782 364.99549 483.04407 265.86867 495.4043 214.91016 C 509.38501 157.27073 492.22502 96.504159 433.4668 62.580078 C 411.43248 49.858552 387.60398 43.959668 364.8418 44.304688 z M 174.08789 206.77148 C 182.53757 206.47565 190.5384 212.67157 192.98828 222.02734 L 193.3125 223.26172 C 196.11236 233.95404 190.56904 244.60474 180.88477 247.14062 L 110.0625 265.68555 C 100.37824 268.22145 90.325264 261.65521 87.525391 250.96289 L 87.203125 249.72852 C 84.403273 239.0362 89.946597 228.38744 99.630859 225.85156 L 170.45508 207.30664 C 171.66561 206.98965 172.88078 206.81368 174.08789 206.77148 z M 337.91211 212.11133 C 339.11921 212.15359 340.33634 212.32948 341.54688 212.64648 L 412.36914 231.19336 C 422.05341 233.72927 427.59672 244.37798 424.79688 255.07031 L 424.47461 256.30273 C 421.67473 266.99505 411.62568 273.56323 401.94141 271.02734 L 331.11523 252.48047 C 321.43095 249.94457 315.88765 239.29388 318.6875 228.60156 L 319.01172 227.36719 C 321.4616 218.01139 329.46241 211.81551 337.91211 212.11133 z M 215.74414 273.07617 C 216.81945 273.0972 217.961 273.77753 218.9707 275.48438 C 220.43937 277.96714 221.62984 282.62016 223.25586 285.71484 C 224.88191 288.80954 226.94431 290.34668 228.9375 291.25586 C 230.9307 292.16504 232.8529 292.44277 235.65039 291.9707 C 238.44787 291.49862 242.11928 290.27476 245.05664 288.70117 C 247.99397 287.12759 250.19654 285.20694 252.24219 283.37109 C 254.28785 281.53524 256.17838 279.7858 258.11914 279.9082 C 260.05989 280.03057 262.05136 282.02214 264.3418 283.96289 C 266.63223 285.90363 269.2187 287.79257 272.12109 289.17383 C 275.02348 290.55509 278.24057 291.42915 281.58008 291.69141 C 284.91955 291.95369 288.38287 291.60531 291.66992 290.83594 C 294.95694 290.06664 298.07043 288.8768 300.64062 288.125 C 303.21081 287.37317 305.23839 287.05933 307.07422 287.19922 C 308.91006 287.3391 310.55306 287.93429 311.33984 289.1582 C 312.12662 290.38211 312.0567 292.2341 311.33984 294 C 310.62298 295.76591 309.2577 297.44427 306.6875 299.07031 C 304.11731 300.69636 300.34158 302.26979 297.23047 303.3418 C 294.11934 304.4138 291.67333 304.98445 288.4375 305.16992 C 285.20162 305.35535 281.17726 305.15711 277.60938 304.66211 C 274.0415 304.16706 270.93233 303.37469 268.38086 302.41992 C 265.82939 301.46517 263.83369 300.34839 262.14648 298.48633 C 260.45927 296.62429 259.0789 294.01887 257.40039 293.89648 C 255.72189 293.77411 253.74691 296.13413 251.16797 298.01367 C 248.58904 299.89325 245.40477 301.29291 242.22266 302.37695 C 239.04052 303.46097 235.85978 304.22889 232.66016 303.93164 C 229.46053 303.6344 226.24567 302.27105 223.62305 300.73242 C 221.00042 299.1938 218.9708 297.47905 217.16992 295.03125 C 215.36905 292.58345 213.79523 289.40183 212.76367 286.39453 C 211.7321 283.38724 211.24181 280.554 211.53906 278.24609 C 211.8363 275.93817 212.91971 274.1562 214.33594 273.42188 C 214.77851 273.19234 215.25537 273.06617 215.74414 273.07617 z " /></g></svg>
