<?xml version="1.0" encoding="UTF-8" standalone="no"?>
<!-- Created with Inkscape (http://www.inkscape.org/) -->

<svg
   width="512"
   height="512"
   viewBox="0 0 512 512"
   version="1.1"
   id="svg1"
   xml:space="preserve"
   sodipodi:docname="inspiration-1.svg"
   inkscape:version="1.4.2 (ebf0e94, 2025-05-08)"
   xmlns:inkscape="http://www.inkscape.org/namespaces/inkscape"
   xmlns:sodipodi="http://sodipodi.sourceforge.net/DTD/sodipodi-0.dtd"
   xmlns="http://www.w3.org/2000/svg"
   xmlns:svg="http://www.w3.org/2000/svg"><sodipodi:namedview
     id="namedview1"
     pagecolor="#ffffff"
     bordercolor="#000000"
     borderopacity="0.25"
     inkscape:showpageshadow="2"
     inkscape:pageopacity="0.0"
     inkscape:pagecheckerboard="true"
     inkscape:deskcolor="#d1d1d1"
     inkscape:document-units="px"
     showguides="true"
     inkscape:zoom="1"
     inkscape:cx="148.5"
     inkscape:cy="220.5"
     inkscape:window-width="1920"
     inkscape:window-height="1017"
     inkscape:window-x="-8"
     inkscape:window-y="-8"
     inkscape:window-maximized="1"
     inkscape:current-layer="layer1"
     inkscape:lockguides="true"><sodipodi:guide
       position="-302.06908,500"
       orientation="0,1"
       id="guide1"
       inkscape:locked="true"
       inkscape:label=""
       inkscape:color="rgb(0,134,229)" /><sodipodi:guide
       position="-126.15826,12"
       orientation="0,1"
       id="guide2"
       inkscape:locked="true"
       inkscape:label=""
       inkscape:color="rgb(0,134,229)" /><sodipodi:guide
       position="12,418.71396"
       orientation="-1,0"
       id="guide3"
       inkscape:locked="true"
       inkscape:label=""
       inkscape:color="rgb(0,134,229)" /><sodipodi:guide
       position="500,400.94519"
       orientation="-1,0"
       id="guide4"
       inkscape:locked="true"
       inkscape:label=""
       inkscape:color="rgb(0,134,229)" /></sodipodi:namedview><defs
     id="defs1"><inkscape:path-effect
       effect="skeletal"
       id="path-effect19"
       is_visible="true"
       lpeversion="1"
       pattern="m 27.93072,5.26847 v 73.2552 c 0,2.91874 -2.34974,5.26848 -5.26848,5.26848 H 5.26848 C 2.34974,83.79215 0,81.44241 0,78.52367 V 5.26847 C 0,2.34974 2.34974,0 5.26848,0 h 17.39376 c 2.91874,0 5.26848,2.34974 5.26848,5.26847 z"
       copytype="repeated_stretched"
       prop_scale="0.8"
       scale_y_rel="false"
       spacing="36.2"
       normal_offset="0"
       tang_offset="0"
       prop_units="false"
       vertical_pattern="false"
       hide_knot="false"
       fuse_tolerance="0" /><inkscape:path-effect
       effect="skeletal"
       id="path-effect18"
       is_visible="true"
       lpeversion="1"
       pattern="m -27.93072,-5.26847 v -73.2552 c 0,-2.91874 2.34974,-5.26848 5.26848,-5.26848 h 17.39376 c 2.91874,0 5.26848,2.34974 5.26848,5.26848 v 73.2552 C 0,-2.34974 -2.34974,0 -5.26848,0 h -17.39376 c -2.91874,0 -5.26848,-2.34974 -5.26848,-5.26847 z"
       copytype="repeated_stretched"
       prop_scale="0.8"
       scale_y_rel="false"
       spacing="12.8"
       normal_offset="0"
       tang_offset="0"
       prop_units="false"
       vertical_pattern="false"
       hide_knot="false"
       fuse_tolerance="0" /><inkscape:path-effect
       effect="skeletal"
       id="path-effect17"
       is_visible="true"
       lpeversion="1"
       pattern="m 27.93072,11.26847 v 73.2552 c 0,2.91874 -2.34974,5.26848 -5.26848,5.26848 H 5.26848 C 2.34974,89.79215 0,87.44241 0,84.52367 V 11.26847 C 0,8.34974 2.34974,6 5.26848,6 h 17.39376 c 2.91874,0 5.26848,2.34974 5.26848,5.26847 z"
       copytype="repeated_stretched"
       prop_scale="0.8"
       scale_y_rel="false"
       spacing="20"
       normal_offset="0"
       tang_offset="0"
       prop_units="false"
       vertical_pattern="false"
       hide_knot="false"
       fuse_tolerance="0" /><inkscape:path-effect
       effect="bspline"
       id="path-effect16"
       is_visible="true"
       lpeversion="1.3"
       weight="33.333333"
       steps="2"
       helper_size="0"
       apply_no_weight="true"
       apply_with_weight="true"
       only_selected="false"
       uniform="false" /><inkscape:path-effect
       effect="skeletal"
       id="path-effect15"
       is_visible="true"
       lpeversion="1"
       pattern="m -27.93072,-5.26847 v -73.2552 c 0,-2.91874 2.34974,-5.26848 5.26848,-5.26848 h 17.39376 c 2.91874,0 5.26848,2.34974 5.26848,5.26848 v 73.2552 C 0,-2.34974 -2.34974,0 -5.26848,0 h -17.39376 c -2.91874,0 -5.26848,-2.34974 -5.26848,-5.26847 z"
       copytype="repeated_stretched"
       prop_scale="0.8"
       scale_y_rel="false"
       spacing="9"
       normal_offset="0"
       tang_offset="0"
       prop_units="false"
       vertical_pattern="false"
       hide_knot="false"
       fuse_tolerance="0" /><inkscape:path-effect
       effect="skeletal"
       id="path-effect14"
       is_visible="true"
       lpeversion="1"
       pattern="m 660.08418,5.26847 v 73.2552 c 0,2.91874 -2.34974,5.26848 -5.26848,5.26848 h -17.39376 c -2.91874,0 -5.26848,-2.34974 -5.26848,-5.26848 V 5.26847 C 632.15346,2.34974 634.5032,0 637.42194,0 h 17.39376 c 2.91874,0 5.26848,2.34974 5.26848,5.26847 z"
       copytype="repeated_stretched"
       prop_scale="0.8"
       scale_y_rel="false"
       spacing="22"
       normal_offset="0"
       tang_offset="0"
       prop_units="false"
       vertical_pattern="false"
       hide_knot="false"
       fuse_tolerance="0" /><inkscape:path-effect
       effect="skeletal"
       id="path-effect13"
       is_visible="true"
       lpeversion="1"
       pattern="M 0,0 H 1"
       copytype="single_stretched"
       prop_scale="1"
       scale_y_rel="false"
       spacing="0"
       normal_offset="0"
       tang_offset="0"
       prop_units="false"
       vertical_pattern="false"
       hide_knot="false"
       fuse_tolerance="0" /><inkscape:path-effect
       effect="skeletal"
       id="path-effect12"
       is_visible="true"
       lpeversion="1"
       pattern="M 0,0 H 1"
       copytype="repeated_stretched"
       prop_scale="1"
       scale_y_rel="false"
       spacing="4"
       normal_offset="0"
       tang_offset="0"
       prop_units="false"
       vertical_pattern="false"
       hide_knot="false"
       fuse_tolerance="0" /><inkscape:path-effect
       effect="bspline"
       id="path-effect1"
       is_visible="true"
       lpeversion="1.3"
       weight="33.333333"
       steps="2"
       helper_size="0"
       apply_no_weight="true"
       apply_with_weight="true"
       only_selected="false"
       uniform="false" /><inkscape:path-effect
       effect="bspline"
       id="path-effect5"
       is_visible="true"
       lpeversion="1.3"
       weight="33.333333"
       steps="2"
       helper_size="0"
       apply_no_weight="true"
       apply_with_weight="true"
       only_selected="false"
       uniform="false" /><inkscape:path-effect
       effect="bspline"
       id="path-effect4"
       is_visible="true"
       lpeversion="1.3"
       weight="33.333333"
       steps="2"
       helper_size="0"
       apply_no_weight="true"
       apply_with_weight="true"
       only_selected="false"
       uniform="false" /></defs><g
     inkscape:label="Layer 1"
     inkscape:groupmode="layer"
     id="layer1"><path
       id="path3"
       style="fill:#000000;stroke-width:1.02597"
       d="m 255.44336,108.48242 c -8.36877,0.003 -16.64487,0.51549 -22.54883,1.53711 -56.80837,9.83015 -101.89311,54.94148 -111.82422,111.89063 -1.99695,11.45142 -1.99695,34.46655 0,45.91796 3.32463,19.06482 12.01982,40.13058 23.13086,56.04102 2.95551,4.23214 11.12948,13.41666 18.16406,20.4082 7.03459,6.99155 14.1079,14.79002 15.71875,17.33008 3.32123,5.23704 6.62498,14.81433 7.59766,22.02539 l 0.65625,4.87305 h 69.60742 69.60742 l 0.73243,-5.32813 c 1.97763,-14.37909 6.69512,-22.51536 21.20312,-36.57031 6.20982,-6.01588 14.19614,-14.79617 17.7461,-19.50976 12.57256,-16.69368 22.33347,-39.42976 25.61132,-59.65625 2.03976,-12.58678 2.02418,-32.95045 -0.0352,-45.21875 -9.56771,-56.99876 -55.62739,-103.04107 -112.25977,-112.21875 -6.27679,-1.0172 -14.73865,-1.52453 -23.10742,-1.52149 z m 0.95898,71.75196 c 5.59553,0 8.40381,3.31509 16.50586,19.49218 4.20575,8.3975 8.76149,16.08098 10.21289,17.22266 1.75612,1.38136 5.58026,2.46001 11.59375,3.26953 21.39531,2.88017 26.15139,3.98808 29.05664,6.77148 1.53838,1.47386 3.01984,3.84861 3.29297,5.27735 1.10687,5.79027 -1.0711,9.14403 -13.6289,20.97851 -6.72926,6.34167 -12.78176,12.84954 -13.44922,14.46094 -0.99742,2.40796 -0.72665,5.88835 1.51953,19.54297 3.40292,20.6867 3.39477,21.44037 -0.29883,25.57422 -2.63158,2.94526 -3.59338,3.34082 -7.95117,3.26172 -4.11096,-0.0746 -7.32314,-1.36636 -18.80859,-7.5586 -7.61785,-4.10707 -15.51693,-7.69637 -17.55274,-7.97656 -3.15579,-0.43434 -5.87764,0.65784 -18.4668,7.40234 -9.09084,4.87033 -16.43215,8.11891 -19.09961,8.45313 -3.92466,0.49174 -4.67332,0.20168 -7.95117,-3.07617 -4.48854,-4.48855 -4.54271,-6.01853 -0.93554,-26.4961 1.48844,-8.44973 2.38247,-16.43104 2.00781,-17.92382 -0.39444,-1.57158 -5.83603,-7.66532 -13.08203,-14.64844 -12.80445,-12.33992 -15.59672,-16.42696 -14.60157,-21.38281 1.45639,-7.25268 5.01326,-8.92342 24.87305,-11.68164 12.49721,-1.73567 17.3984,-2.83271 19.28711,-4.31836 1.3928,-1.09558 6.15838,-9.23212 10.58984,-18.08203 8.57515,-17.1251 9.88336,-18.5625 16.88672,-18.5625 z" /><path
       id="path11"
       style="stroke-width:11.8245;stroke-linecap:round;stroke-linejoin:round"
       d="m 325.58183,422.29608 a 69.621498,69.621498 0 0 1 -34.81075,60.29399 69.621498,69.621498 0 0 1 -69.6215,0 69.621498,69.621498 0 0 1 -34.81075,-60.29399" /><path
       id="rect11"
       style="stroke-width:8;stroke-linecap:round;stroke-linejoin:round"
       d="m 191.60731,392.10767 h 128.70603 c 2.91874,0 5.26848,2.34974 5.26848,5.26847 v 15.65148 c 0,2.91873 -2.34974,5.26847 -5.26848,5.26847 H 191.60731 c -2.91873,0 -5.26847,-2.34974 -5.26847,-5.26847 v -15.65148 c 0,-2.91873 2.34974,-5.26847 5.26847,-5.26847 z" /><path
       style="opacity:1;fill:#000000;stroke:none;stroke-width:10.3137;stroke-linecap:round;stroke-linejoin:round"
       d="m 415.06373,195.56229 -56.07828,16.78081 c -2.23435,0.66861 -4.53431,-0.48155 -5.25333,-2.55393 -1.4283,-4.11666 -3.1363,-8.15571 -5.09968,-12.06991 -0.98839,-1.97046 -0.20728,-4.42841 1.83783,-5.55541 l 51.3286,-28.28589 c 2.0451,-1.127 5.13663,0.56023 6.78355,3.85913 3.27151,6.55307 6.10728,13.32389 8.48297,20.26523 1.19595,3.49435 0.23268,6.89137 -2.00166,7.55997 z"
       id="path30"
       transform="matrix(1.4395673,0,0,1.4395673,-112.58552,-105.88884)" /><path
       style="opacity:1;fill:#000000;stroke:none;stroke-width:10.3137;stroke-linecap:round;stroke-linejoin:round"
       d="m 375.09532,128.193 -41.54271,41.32744 c -1.11195,1.10619 -2.66277,1.49198 -4.01066,1.19587 -0.65746,-0.152 -1.27626,-0.46907 -1.79709,-0.95718 -3.17028,-2.97117 -6.57585,-5.73233 -10.17258,-8.26936 -1.81064,-1.27717 -2.29766,-3.81799 -1.02815,-5.77402 l 31.86251,-49.09285 c 1.2695,-1.95602 4.7698,-1.93599 7.76594,0.17964 5.95166,4.20259 11.65828,8.79781 17.07571,13.77155 0.8914,0.81839 1.57966,1.7401 2.04129,2.6669 0.95023,1.92521 0.92035,3.84318 -0.19426,4.95201 z"
       transform="matrix(1.4395673,0,0,1.4395673,-112.58552,-105.88884)"
       id="path29" /><path
       style="opacity:1;fill:#000000;stroke:none;stroke-width:10.3137;stroke-linecap:round;stroke-linejoin:round"
       d="m 308.71372,87.637562 -18.21771,55.712768 c -0.72586,2.21978 -3.03386,3.43634 -5.20125,2.8168 -4.30538,-1.23068 -8.68334,-2.19931 -13.08975,-2.89177 -2.21823,-0.3486 -3.79081,-2.41978 -3.51776,-4.73882 l 6.853,-58.203873 c 0.27304,-2.319035 3.41554,-3.85671 7.01933,-3.295182 7.15874,1.115445 14.23514,2.675563 21.18508,4.666239 3.49868,1.002129 5.69491,3.714057 4.96906,5.933838 z"
       transform="matrix(1.4395673,0,0,1.4395673,-112.58552,-105.88884)"
       id="path28" /><path
       style="opacity:1;fill:#000000;stroke:none;stroke-width:10.3137;stroke-linecap:round;stroke-linejoin:round"
       d="m 231.39748,80.994681 8.58097,57.978879 c 0.3419,2.31008 -1.17166,4.42785 -3.38183,4.84212 -4.39039,0.82294 -8.74185,1.91868 -13.01025,3.27312 -2.14876,0.68184 -4.49085,-0.46744 -5.28126,-2.66482 L 198.46732,89.273531 c -0.79041,-2.197376 1.3256,-4.972961 4.79276,-6.077714 6.88733,-2.194534 13.91162,-3.961863 21.02873,-5.287875 3.58284,-0.667529 6.76677,0.776668 7.10867,3.086739 z"
       transform="matrix(1.4395673,0,0,1.4395673,-112.58552,-105.88884)"
       id="path27" /><path
       style="opacity:1;fill:#000000;stroke:none;stroke-width:10.3137;stroke-linecap:round;stroke-linejoin:round"
       d="m 159.33119,109.44396 33.34277,48.09333 c 1.32849,1.91621 0.92389,4.46874 -0.83975,5.79914 -3.19759,2.4121 -6.2272,5.00811 -9.05527,7.77731 -0.27079,0.25982 -0.5401,0.52152 -0.80791,0.78504 -1.54467,1.51991 -4.10867,1.52714 -5.81666,-0.0644 l -42.86748,-39.94493 c -1.70798,-1.59154 -1.05543,-5.0719 1.59257,-7.69114 0.45912,-0.45413 0.92109,-0.90572 1.38592,-1.35473 4.8643,-4.64324 9.97503,-8.97291 15.29863,-12.9783 2.93625,-2.20918 6.4387,-2.33751 7.76718,-0.42131 z"
       transform="matrix(1.4395673,0,0,1.4395673,-112.58552,-105.88884)"
       id="path26" /><path
       style="opacity:1;fill:#000000;stroke:none;stroke-width:10.3137;stroke-linecap:round;stroke-linejoin:round"
       d="m 107.75444,168.37499 52.18538,26.66233 c 2.07925,1.06231 2.93599,3.49424 2.00941,5.49323 -1.84062,3.97088 -3.42008,8.05538 -4.71405,12.20626 -0.6514,2.08961 -2.91123,3.30858 -5.16533,2.71208 L 95.49586,200.47762 c -2.254096,-0.5965 -3.324045,-3.96415 -2.238875,-7.49796 2.155633,-7.01972 4.777125,-13.88016 7.840145,-20.53406 1.54196,-3.34966 4.57807,-5.13292 6.65731,-4.07061 z"
       transform="matrix(1.4395673,0,0,1.4395673,-112.58552,-105.88884)"
       id="path25" /></g></svg>
