<?xml version="1.0" encoding="UTF-8" standalone="no"?>
<!-- Created with Inkscape (http://www.inkscape.org/) -->

<svg
   width="512"
   height="512"
   viewBox="0 0 512 512"
   version="1.1"
   id="svg1"
   xml:space="preserve"
   sodipodi:docname="scenery-3.svg"
   inkscape:version="1.4.2 (ebf0e94, 2025-05-08)"
   xmlns:inkscape="http://www.inkscape.org/namespaces/inkscape"
   xmlns:sodipodi="http://sodipodi.sourceforge.net/DTD/sodipodi-0.dtd"
   xmlns="http://www.w3.org/2000/svg"
   xmlns:svg="http://www.w3.org/2000/svg"><sodipodi:namedview
     id="namedview1"
     pagecolor="#ffffff"
     bordercolor="#000000"
     borderopacity="0.25"
     inkscape:showpageshadow="2"
     inkscape:pageopacity="0.0"
     inkscape:pagecheckerboard="true"
     inkscape:deskcolor="#d1d1d1"
     inkscape:document-units="px"
     showguides="true"
     inkscape:zoom="0.5627852"
     inkscape:cx="-57.748498"
     inkscape:cy="414.90075"
     inkscape:window-width="1920"
     inkscape:window-height="1017"
     inkscape:window-x="-8"
     inkscape:window-y="-8"
     inkscape:window-maximized="1"
     inkscape:current-layer="layer1"
     inkscape:lockguides="true"><sodipodi:guide
       position="-302.06908,500"
       orientation="0,1"
       id="guide1"
       inkscape:locked="true"
       inkscape:label=""
       inkscape:color="rgb(0,134,229)" /><sodipodi:guide
       position="-126.15826,12"
       orientation="0,1"
       id="guide2"
       inkscape:locked="true"
       inkscape:label=""
       inkscape:color="rgb(0,134,229)" /><sodipodi:guide
       position="12,418.71396"
       orientation="-1,0"
       id="guide3"
       inkscape:locked="true"
       inkscape:label=""
       inkscape:color="rgb(0,134,229)" /><sodipodi:guide
       position="500,400.94519"
       orientation="-1,0"
       id="guide4"
       inkscape:locked="true"
       inkscape:label=""
       inkscape:color="rgb(0,134,229)" /></sodipodi:namedview><defs
     id="defs1"><inkscape:path-effect
       effect="bspline"
       id="path-effect1"
       is_visible="true"
       lpeversion="1.3"
       weight="33.333333"
       steps="2"
       helper_size="0"
       apply_no_weight="true"
       apply_with_weight="true"
       only_selected="false"
       uniform="false" /><inkscape:path-effect
       effect="bspline"
       id="path-effect5"
       is_visible="true"
       lpeversion="1.3"
       weight="33.333333"
       steps="2"
       helper_size="0"
       apply_no_weight="true"
       apply_with_weight="true"
       only_selected="false"
       uniform="false" /><inkscape:path-effect
       effect="bspline"
       id="path-effect4"
       is_visible="true"
       lpeversion="1.3"
       weight="33.333333"
       steps="2"
       helper_size="0"
       apply_no_weight="true"
       apply_with_weight="true"
       only_selected="false"
       uniform="false" /></defs><g
     inkscape:label="Layer 1"
     inkscape:groupmode="layer"
     id="layer1"><path
       style="fill:#020202;stroke:none;stroke-width:0.965822"
       d="M 184.80559,8.8949743 C 158.62657,12.332265 134.27188,16.799986 110.43733,29.01774 46.281861,61.904218 8.9117419,128.60426 9.0260569,199.71777 c 0.07273,45.25119 19.6808841,90.74298 50.3091621,123.62516 7.346966,7.88762 24.508978,28.39135 36.614779,26.88502 8.279882,-1.03026 15.293592,-15.07013 20.089992,-21.09009 11.22907,-14.09367 22.17286,-28.41411 33.41623,-42.49615 5.68995,-7.12653 10.98667,-15.66472 19.89622,-19.05337 20.22562,-7.69259 31.13273,13.69425 39.59868,27.74576 3.30996,5.49379 7.55557,16.13999 15.45242,15.19009 8.98466,-1.08075 18.61782,-18.31525 24.06876,-24.8483 15.00359,-17.98212 30.10796,-35.91402 44.8809,-54.08601 6.98932,-8.59746 14.36405,-20.40419 25.70158,-23.40773 20.46915,-5.4227 30.47125,17.40887 39.60241,31.1343 3.51716,5.28682 10.72908,12.93693 16.70215,5.57435 4.20322,-5.18101 4.38224,-14.68425 5.43051,-21.02749 3.38119,-20.46046 2.59069,-41.4274 -0.81079,-61.81258 C 365.40643,74.716268 276.07944,-3.089195 184.80559,8.8949743 M 311.33791,236.46444 c -5.93511,2.82858 -10.76879,11.41418 -14.89646,16.37351 l -32.83793,39.59869 c -39.32098,47.24343 -78.31964,94.75621 -117.66928,141.97577 l -36.86218,44.42779 c -3.9189,4.70885 -11.802412,11.38926 -9.723804,18.30888 1.954904,6.50773 9.574334,5.8363 14.952354,5.83666 h 44.42779 143.90742 39.59868 c 5.11689,0 12.69162,1.37015 17.33188,-1.13872 5.73504,-3.10078 4.30302,-9.07619 3.36025,-14.31443 -2.25975,-12.55556 -4.44948,-25.12725 -6.79503,-37.66704 -9.926,-53.06598 -19.85098,-106.17376 -29.10879,-159.36056 -2.52441,-14.50294 -5.1708,-29.00925 -7.96803,-43.46197 -0.77152,-3.98634 -1.17205,-13.69776 -7.71687,-10.57858 m 28.12804,8.61864 c -6.42237,1.56799 -0.36011,19.80969 0.42703,24.17384 4.70496,26.08587 9.4333,52.17606 14.30698,78.23155 6.91958,36.99331 13.3626,74.07584 20.28225,111.06948 2.00297,10.70816 1.6705,32.96735 8.81312,41.30974 5.14557,6.00985 20.33814,3.11805 27.5125,3.11805 h 59.88094 c 7.87053,0 19.65373,2.19143 27.02809,-0.71691 6.2519,-2.46564 6.28886,-8.70089 3.42586,-13.77042 -7.10827,-12.58665 -15.68087,-24.67115 -23.6932,-36.70121 -33.8243,-50.78528 -66.7353,-102.26639 -99.77696,-153.56563 -8.92846,-13.862 -18.23059,-27.52566 -26.93124,-41.53033 -2.06855,-3.32956 -6.19469,-12.85859 -11.27537,-11.61816 m -178.79174,55.80078 c -4.90916,1.85236 -8.20182,7.87584 -11.26644,11.83503 -7.51531,9.70909 -15.15949,19.32792 -22.75493,28.97465 -28.364544,36.02489 -56.409323,72.31141 -84.981116,108.17201 -8.403324,10.54705 -16.545663,21.3034 -24.922079,31.87211 -3.087606,3.89571 -8.4735781,8.9521 -7.2630361,14.48361 1.1863571,5.42096 6.3503831,6.69405 11.1293071,6.76075 13.647425,0.19041 32.24148,3.18266 45.393613,-0.41511 11.089776,-3.03362 22.177417,-22.80911 29.164682,-31.45328 19.672329,-24.33728 39.737069,-48.39345 59.768409,-72.43662 7.40633,-8.88966 22.54426,-21.60454 25.58086,-32.83793 1.53036,-5.66129 -0.81318,-12.72186 -1.7513,-18.35061 -2.08929,-12.5357 -3.90566,-25.23262 -6.52674,-37.66704 -1.17925,-5.59433 -4.8899,-11.45862 -11.57123,-8.93757 m 29.26752,0.41509 c -3.15487,1.55564 -1.16899,6.97459 -0.71691,9.4883 1.56155,8.68255 2.94144,17.39664 4.51535,26.07718 0.5081,2.80232 1.41457,8.14432 5.53335,6.59083 17.08125,-6.44258 6.6837,-22.10286 0.80263,-31.70219 -1.63251,-2.66462 -5.75967,-12.61127 -10.13442,-10.45412 z"
       id="path1" /></g></svg>
