<?xml version="1.0" encoding="UTF-8" standalone="no"?>
<!-- Created with Inkscape (http://www.inkscape.org/) -->

<svg
   width="512"
   height="512"
   viewBox="0 0 512 512"
   version="1.1"
   id="svg1"
   xml:space="preserve"
   sodipodi:docname="meme-2.svg"
   inkscape:version="1.4.2 (ebf0e94, 2025-05-08)"
   xmlns:inkscape="http://www.inkscape.org/namespaces/inkscape"
   xmlns:sodipodi="http://sodipodi.sourceforge.net/DTD/sodipodi-0.dtd"
   xmlns="http://www.w3.org/2000/svg"
   xmlns:svg="http://www.w3.org/2000/svg"><sodipodi:namedview
     id="namedview1"
     pagecolor="#ffffff"
     bordercolor="#000000"
     borderopacity="0.25"
     inkscape:showpageshadow="2"
     inkscape:pageopacity="0.0"
     inkscape:pagecheckerboard="true"
     inkscape:deskcolor="#d1d1d1"
     inkscape:document-units="px"
     showguides="true"
     inkscape:zoom="0.79589846"
     inkscape:cx="59.052759"
     inkscape:cy="223.0184"
     inkscape:window-width="1920"
     inkscape:window-height="1017"
     inkscape:window-x="-8"
     inkscape:window-y="-8"
     inkscape:window-maximized="1"
     inkscape:current-layer="layer1"
     inkscape:lockguides="true"><sodipodi:guide
       position="-302.06908,500"
       orientation="0,1"
       id="guide1"
       inkscape:locked="true"
       inkscape:label=""
       inkscape:color="rgb(0,134,229)" /><sodipodi:guide
       position="-126.15826,12"
       orientation="0,1"
       id="guide2"
       inkscape:locked="true"
       inkscape:label=""
       inkscape:color="rgb(0,134,229)" /><sodipodi:guide
       position="12,418.71396"
       orientation="-1,0"
       id="guide3"
       inkscape:locked="true"
       inkscape:label=""
       inkscape:color="rgb(0,134,229)" /><sodipodi:guide
       position="500,400.94519"
       orientation="-1,0"
       id="guide4"
       inkscape:locked="true"
       inkscape:label=""
       inkscape:color="rgb(0,134,229)" /></sodipodi:namedview><defs
     id="defs1"><inkscape:path-effect
       effect="bspline"
       id="path-effect6"
       is_visible="true"
       lpeversion="1.3"
       weight="33.333333"
       steps="2"
       helper_size="0"
       apply_no_weight="true"
       apply_with_weight="true"
       only_selected="false"
       uniform="false" /><inkscape:path-effect
       effect="bspline"
       id="path-effect1"
       is_visible="true"
       lpeversion="1.3"
       weight="33.333333"
       steps="2"
       helper_size="0"
       apply_no_weight="true"
       apply_with_weight="true"
       only_selected="false"
       uniform="false" /><inkscape:path-effect
       effect="bspline"
       id="path-effect5"
       is_visible="true"
       lpeversion="1.3"
       weight="33.333333"
       steps="2"
       helper_size="0"
       apply_no_weight="true"
       apply_with_weight="true"
       only_selected="false"
       uniform="false" /><inkscape:path-effect
       effect="bspline"
       id="path-effect4"
       is_visible="true"
       lpeversion="1.3"
       weight="33.333333"
       steps="2"
       helper_size="0"
       apply_no_weight="true"
       apply_with_weight="true"
       only_selected="false"
       uniform="false" /></defs><g
     inkscape:label="Layer 1"
     inkscape:groupmode="layer"
     id="layer1"><path
       id="path1"
       style="display:inline;opacity:1;stroke-width:0.945172;stroke-linecap:round;fill:#000000;stroke:none"
       d="M 256.00092,12 A 237.12047,243.99983 0 0 0 18.879259,256 237.12047,243.99983 0 0 0 256.00092,500 237.12047,243.99983 0 0 0 493.12074,256 237.12047,243.99983 0 0 0 256.00092,12 Z m -126.0382,192.68569 c 24,-1e-5 44.67759,25.99319 39.44798,54.05384 -5.64324,30.27999 -9.21548,25.36476 -40.9322,22.58442 -31.716703,-2.78034 -33.508914,4.83162 -38.259124,-24.36586 -4.688564,-28.81858 15.743344,-52.2724 39.743344,-52.2724 z m 250.80265,0.36737 c 23.99999,0 46.32225,22.66739 41.63368,51.48597 -4.75021,29.19751 -9.06205,19.90524 -39.93902,24.78492 -30.877,4.87967 -38.0174,7.69557 -43.66065,-22.58442 -5.2296,-28.06065 17.96598,-53.68648 41.96599,-53.68647 z m -259.61932,143.40018 10.49658,7.66292 c 4.19861,1.88936 8.39661,3.7774 12.8927,5.45688 4.49609,1.67947 9.28983,3.14978 14.41572,4.46187 5.12589,1.31207 10.58477,2.46615 16.83031,3.53331 6.24554,1.06716 13.27767,2.04746 20.4504,2.88721 7.17274,0.83973 14.48525,1.53886 20.62578,1.99371 6.14054,0.45485 11.10973,0.66588 16.49803,0.82333 5.3883,0.15746 11.19473,0.26136 16.9854,0.31383 5.79069,0.0524 11.56455,0.0532 17.23275,-0.0867 5.66822,-0.13995 11.23097,-0.41992 16.74171,-0.7698 5.51077,-0.34989 10.96944,-0.76977 15.22059,-1.13716 4.25114,-0.36737 7.29396,-0.68185 12.68228,-1.32914 5.38832,-0.64731 13.12064,-1.62674 19.48862,-2.53644 6.36797,-0.90973 11.37183,-1.75037 15.99038,-2.62509 4.61853,-0.87472 8.85238,-1.78344 14.01325,-2.99057 5.16088,-1.20712 11.24926,-2.71295 16.69003,-4.67232 5.4408,-1.95939 10.23333,-4.37367 15.02676,-6.7879 -2.69413,3.21896 -5.38855,6.43826 -7.62783,9.90217 -2.23929,3.4639 -4.02383,7.17367 -5.68581,10.55008 -1.66196,3.37644 -3.20082,6.41911 -5.00276,9.60309 -1.80193,3.18401 -3.86681,6.50755 -5.36458,8.80377 -1.49775,2.29621 -2.42781,3.56461 -4.2385,5.60273 -1.81068,2.0381 -4.5003,4.84584 -7.4986,7.73673 -2.99833,2.89088 -6.30623,5.86647 -9.38525,8.40315 -3.07904,2.53671 -5.92908,4.63582 -8.96436,6.68266 -3.03529,2.04686 -6.25412,4.03976 -9.72677,5.9904 -3.47265,1.95064 -7.19939,3.8576 -10.70703,5.48459 -3.50764,1.62696 -6.79719,2.97537 -10.40979,4.30495 -3.61262,1.32957 -7.54849,2.64073 -11.3273,3.76038 -3.7788,1.11964 -7.40054,2.04704 -10.50579,2.71182 -3.10527,0.66479 -5.69366,1.06739 -8.14288,1.40852 -2.44921,0.34115 -4.75775,0.62146 -7.60937,0.91009 -2.85159,0.28867 -6.246,0.58604 -9.80614,0.73475 -3.56014,0.14868 -7.2875,0.14733 -10.7864,0.007 -3.49888,-0.13994 -6.76891,-0.41975 -10.70518,-0.90084 -3.93625,-0.4811 -8.53781,-1.1624 -12.44782,-1.85343 -3.91002,-0.69104 -7.12812,-1.39207 -10.74948,-2.39802 -3.62136,-1.00593 -7.64473,-2.31805 -11.52851,-3.77883 -3.88376,-1.46079 -7.6287,-3.06958 -11.18882,-4.80155 -3.56013,-1.73195 -6.93609,-3.58636 -10.35627,-5.6507 -3.42017,-2.06436 -6.88311,-4.33762 -10.7144,-7.30294 -3.8313,-2.96531 -8.03112,-6.62208 -11.39004,-9.77106 -3.35894,-3.14901 -5.87841,-5.79136 -8.19643,-8.3718 -2.31801,-2.58042 -4.43356,-5.09933 -6.62912,-7.78473 -2.19554,-2.68541 -4.4706,-5.53586 -6.53496,-8.57116 -2.06435,-3.03529 -3.91747,-6.25499 -5.49196,-9.14157 -1.57451,-2.88657 -2.86942,-5.44029 -4.08529,-8.08196 -1.21585,-2.64166 -2.35338,-5.37028 -3.91913,-8.4493 -1.56577,-3.07904 -3.56038,-6.50835 -5.55472,-9.93723 z" /></g></svg>
