<?xml version="1.0" encoding="UTF-8" standalone="no"?>
<!-- Created with Inkscape (http://www.inkscape.org/) -->

<svg
   width="512"
   height="512"
   viewBox="0 0 512 512"
   version="1.1"
   id="svg1"
   xml:space="preserve"
   sodipodi:docname="wallpaper-1.svg"
   inkscape:version="1.4.2 (ebf0e94, 2025-05-08)"
   xmlns:inkscape="http://www.inkscape.org/namespaces/inkscape"
   xmlns:sodipodi="http://sodipodi.sourceforge.net/DTD/sodipodi-0.dtd"
   xmlns="http://www.w3.org/2000/svg"
   xmlns:svg="http://www.w3.org/2000/svg"><sodipodi:namedview
     id="namedview1"
     pagecolor="#ffffff"
     bordercolor="#000000"
     borderopacity="0.25"
     inkscape:showpageshadow="2"
     inkscape:pageopacity="0.0"
     inkscape:pagecheckerboard="true"
     inkscape:deskcolor="#d1d1d1"
     inkscape:document-units="px"
     showguides="true"
     inkscape:zoom="1.1255704"
     inkscape:cx="210.11569"
     inkscape:cy="322.94737"
     inkscape:window-width="1920"
     inkscape:window-height="1017"
     inkscape:window-x="-8"
     inkscape:window-y="-8"
     inkscape:window-maximized="1"
     inkscape:current-layer="layer1"
     inkscape:lockguides="true"><sodipodi:guide
       position="-302.06908,500"
       orientation="0,1"
       id="guide1"
       inkscape:locked="true"
       inkscape:label=""
       inkscape:color="rgb(0,134,229)" /><sodipodi:guide
       position="-126.15826,12"
       orientation="0,1"
       id="guide2"
       inkscape:locked="true"
       inkscape:label=""
       inkscape:color="rgb(0,134,229)" /><sodipodi:guide
       position="12,418.71396"
       orientation="-1,0"
       id="guide3"
       inkscape:locked="true"
       inkscape:label=""
       inkscape:color="rgb(0,134,229)" /><sodipodi:guide
       position="500,400.94519"
       orientation="-1,0"
       id="guide4"
       inkscape:locked="true"
       inkscape:label=""
       inkscape:color="rgb(0,134,229)" /></sodipodi:namedview><defs
     id="defs1"><inkscape:path-effect
       effect="skeletal"
       id="path-effect6"
       is_visible="true"
       lpeversion="1"
       pattern="m 0,23.95402 a 23.954023,23.954023 0 0 1 11.97701,-20.74479 23.954023,23.954023 0 0 1 23.95402,0 23.954023,23.954023 0 0 1 11.97701,20.74479 H 23.95402 Z"
       copytype="repeated"
       prop_scale="1.73"
       scale_y_rel="false"
       spacing="0"
       normal_offset="0"
       tang_offset="0"
       prop_units="false"
       vertical_pattern="false"
       hide_knot="false"
       fuse_tolerance="0" /><inkscape:path-effect
       effect="skeletal"
       id="path-effect3"
       is_visible="true"
       lpeversion="1"
       pattern="m 47.90804,0 a 23.954023,23.954023 0 0 1 -11.97701,20.74479 23.954023,23.954023 0 0 1 -23.95402,0 A 23.954023,23.954023 0 0 1 0,0 h 23.95402 z"
       copytype="repeated_stretched"
       prop_scale="1.32"
       scale_y_rel="false"
       spacing="0"
       normal_offset="0"
       tang_offset="0"
       prop_units="false"
       vertical_pattern="false"
       hide_knot="false"
       fuse_tolerance="0" /><inkscape:path-effect
       effect="skeletal"
       id="path-effect2"
       is_visible="true"
       lpeversion="1"
       pattern="m 47.90804,0 a 23.954023,23.954023 0 0 1 -11.97701,20.74479 23.954023,23.954023 0 0 1 -23.95402,0 A 23.954023,23.954023 0 0 1 0,0 h 23.95402 z"
       copytype="repeated_stretched"
       prop_scale="1"
       scale_y_rel="false"
       spacing="0"
       normal_offset="0"
       tang_offset="0"
       prop_units="false"
       vertical_pattern="false"
       hide_knot="false"
       fuse_tolerance="0" /><inkscape:path-effect
       effect="bspline"
       id="path-effect1"
       is_visible="true"
       lpeversion="1.3"
       weight="33.333333"
       steps="2"
       helper_size="0"
       apply_no_weight="true"
       apply_with_weight="true"
       only_selected="false"
       uniform="false" /><inkscape:path-effect
       effect="bspline"
       id="path-effect5"
       is_visible="true"
       lpeversion="1.3"
       weight="33.333333"
       steps="2"
       helper_size="0"
       apply_no_weight="true"
       apply_with_weight="true"
       only_selected="false"
       uniform="false" /><inkscape:path-effect
       effect="bspline"
       id="path-effect4"
       is_visible="true"
       lpeversion="1.3"
       weight="33.333333"
       steps="2"
       helper_size="0"
       apply_no_weight="true"
       apply_with_weight="true"
       only_selected="false"
       uniform="false" /></defs><g
     inkscape:label="Layer 1"
     inkscape:groupmode="layer"
     id="layer1"><path
       id="path6"
       style="fill:#000000;stroke-width:1.01689"
       d="M 255.99609 12 C 242.78003 12 229.56406 16.218961 217.74023 24.65625 L 211.25391 29.285156 L 204.76562 24.65625 C 189.04713 13.439764 170.77648 9.5215881 152.98242 13.552734 C 143.45705 15.710657 136.26117 18.942365 128.25391 24.65625 L 121.76758 29.285156 L 115.28125 24.65625 C 82.00807 0.91296802 36.612052 11.974786 18.972656 48.125 C 8.0316848 70.54761 10.101083 94.76676 24.705078 115.23242 L 29.333984 121.71875 L 24.705078 128.20508 C 7.8304803 151.85268 7.8304803 181.0692 24.705078 204.7168 L 29.333984 211.20508 L 24.705078 217.69141 C 7.8304803 241.33901 7.8304803 270.55552 24.705078 294.20312 L 29.333984 300.69141 L 24.705078 307.17773 C 7.8304803 330.82533 7.8304803 360.04185 24.705078 383.68945 L 29.333984 390.17578 L 24.705078 396.66406 C 13.575373 412.26111 9.6354412 430.46822 13.472656 448.58203 C 15.392942 457.64672 21.8113 470.56749 27.779297 477.38672 C 36.805474 487.70042 52.554169 496.79498 64.964844 498.85742 C 83.07638 501.86723 100.38196 497.87021 115.28125 487.23828 L 121.76758 482.60938 L 128.25391 487.23828 C 136.52871 493.14305 143.94347 496.40601 153.63672 498.4082 C 163.36028 500.41667 169.66121 500.41667 179.38477 498.4082 C 189.07802 496.40601 196.49084 493.14305 204.76562 487.23828 L 211.25391 482.60938 L 217.74023 487.23828 C 221.30807 489.78425 226.74487 492.98274 229.82227 494.34375 C 236.57917 497.33196 248.92762 500 255.99609 500 C 263.06456 500 275.41302 497.33196 282.16992 494.34375 C 285.24732 492.98274 290.68411 489.78425 294.25195 487.23828 L 300.73828 482.60938 L 307.22656 487.23828 C 310.79441 489.78425 316.23119 492.98274 319.30859 494.34375 C 326.06548 497.33196 338.41395 500 345.48242 500 C 352.55089 500 364.89936 497.33196 371.65625 494.34375 C 374.73365 492.98274 380.17044 489.78425 383.73828 487.23828 L 390.22461 482.60938 L 396.71289 487.23828 C 409.6979 496.50415 424.60188 500.78471 439.81641 499.61523 C 478.35747 496.65273 506.19973 460.29843 498.61133 422.84766 C 496.51329 412.49385 493.32629 405.12712 487.28711 396.66406 L 482.6582 390.17578 L 487.28711 383.68945 C 493.19186 375.41466 496.45488 367.99983 498.45703 358.30664 C 500.46558 348.58303 500.46558 342.2822 498.45703 332.55859 C 496.45488 322.8654 493.19186 315.45252 487.28711 307.17773 L 482.6582 300.69141 L 487.28711 294.20312 C 493.19186 285.92834 496.45488 278.51546 498.45703 268.82227 C 500.46558 259.09866 500.46558 252.79782 498.45703 243.07422 C 496.45488 233.38102 493.19186 225.9662 487.28711 217.69141 L 482.6582 211.20508 L 487.28711 204.7168 C 493.19186 196.44201 496.45488 189.02913 498.45703 179.33594 C 500.46558 169.61233 500.46558 163.3115 498.45703 153.58789 C 496.45488 143.8947 493.19186 136.47987 487.28711 128.20508 L 482.6582 121.71875 L 487.28711 115.23242 C 499.7345 97.789085 503.2235 75.610367 496.54297 56.400391 C 481.96176 14.472003 432.86366 -1.1403949 396.71289 24.65625 L 390.22461 29.285156 L 383.73828 24.65625 C 360.09072 7.7816713 330.87422 7.7816713 307.22656 24.65625 L 300.73828 29.285156 L 294.25195 24.65625 C 282.42817 16.218961 269.21215 12 255.99609 12 z M 94.019531 87.994141 L 255.99414 87.994141 L 417.9707 87.994141 L 423.98242 90.966797 C 431.22481 94.546157 435.73733 99.154789 439.24219 106.55273 L 441.75977 111.86719 L 441.9707 209.14648 L 442.18164 306.42578 L 255.95312 306.42578 L 69.724609 306.42578 L 69.935547 209.10547 L 70.146484 111.7832 L 73.119141 105.77148 C 76.69855 98.529509 81.307367 94.018392 88.705078 90.513672 L 94.019531 87.994141 z M 361.05078 111.61133 C 359.85522 111.56143 358.87079 112.09459 357.59766 112.83594 C 356.18219 113.66021 354.54192 115.33207 353.95312 116.55078 C 351.599 121.4233 352.18305 122.17081 379.89062 149.78125 C 394.2242 164.06463 406.48804 175.95687 407.14453 176.20898 C 409.07031 176.94851 413.59194 176.09796 415.12891 174.70703 C 417.60622 172.4651 418.54665 169.18116 417.56445 166.20508 C 416.9542 164.35606 408.92335 155.81522 391.0293 137.98828 C 370.12662 117.16403 364.63747 111.76103 361.05078 111.61133 z M 321.04492 120.02344 C 316.12304 119.88734 312.04064 123.96295 312.78906 128.95117 C 313.1458 131.32866 318.41984 136.93784 350.82422 169.41211 C 371.51564 190.14812 389.51906 207.59386 390.83203 208.17969 C 393.98389 209.58604 396.71014 208.91561 399.38672 206.07422 C 401.05659 204.3015 401.57422 202.9599 401.57422 200.41406 L 401.57422 197.07812 L 363.57812 159.04492 C 337.18502 132.6259 324.85161 120.80875 323.19336 120.34961 C 322.46758 120.14865 321.74805 120.04288 321.04492 120.02344 z M 69.75 314.3418 L 256.01172 314.3418 L 442.27539 314.3418 L 442.01758 330.45508 L 441.75977 346.56836 L 439.26367 351.83984 C 434.98384 360.87264 428.07293 366.9631 419.13672 369.57617 C 415.24951 370.71287 398.79575 370.83512 255.60938 370.79492 C 100.71465 370.75142 96.278053 370.70938 91.632812 369.21875 C 82.502371 366.28895 74.498086 358.21475 71.416016 348.82617 C 69.968316 344.41619 69.75 341.82427 69.75 329.04688 L 69.75 314.3418 z M 256.65039 332.30078 C 238.8632 332.24958 236.82019 332.50987 234.17188 335.1582 C 230.542 338.7881 231.18845 344.77704 235.49414 347.40234 C 237.83157 348.82756 239.57695 348.96094 255.95312 348.96094 C 272.20454 348.96094 274.08837 348.81955 276.36133 347.43359 C 280.02128 345.20188 281.19504 341.1171 279.29297 337.22461 C 277.15648 332.85237 274.86107 332.35316 256.65039 332.30078 z M 215.53125 375.53516 L 256.16602 375.74219 L 296.80273 375.94727 L 302.10547 391.86328 L 307.41016 407.77734 L 325.37695 408.17578 L 343.3418 408.57422 L 346.39844 411.00586 C 348.07905 412.34426 350.25941 415.01781 351.24414 416.94531 C 352.81359 420.01711 353.03516 421.65506 353.03516 430.22656 L 353.03516 440.00586 L 255.95312 440.00586 L 158.87305 440.00586 L 158.87305 430.22656 C 158.87305 421.65506 159.09461 420.01711 160.66406 416.94531 C 161.64879 415.01781 163.82916 412.34426 165.50977 411.00586 L 168.56445 408.57422 L 186.5957 408.17578 L 204.62891 407.77734 L 210.08008 391.65625 L 215.53125 375.53516 z " /></g></svg>
