<svg xmlns="http://www.w3.org/2000/svg" fill-rule="evenodd" stroke-linejoin="round" stroke-miterlimit="2" clip-rule="evenodd" viewBox="0 0 688 934"><path fill="#fff" fill-rule="nonzero" d="M301.334 0v678.8l-6.267-.8c-15.2-1.734-19.067-2.4-30.4-4.934-47.467-10.533-79.467-35.466-96-74.666-4.133-9.6-8.8-24.267-10.8-33.467-2.4-10.933-4.667-23.733-5.333-29.467-.4-3.733-1.067-8.266-1.334-10.133-1.866-10.667-2.533-52.267-2.533-171.6V220H0v25.333l3.734.8c24.666 5.467 41.2 17.067 46.666 32.8 6 17.067 7.2 31.334 7.734 89.734.933 93.2 1.733 145.199 2.4 149.999.266 2.534.933 7.6 1.333 11.334 1.067 8 2.8 18.266 5.6 33.466.267 1.467 2.4 9.067 4.667 16.667 18 60.667 52.533 98.267 110.666 120.533 29.467 11.334 72 18.534 114.267 19.2l4.267.134v213.333h85.333V720l3.066-.134c15.6-.666 32.534-1.866 44.934-3.2 28.8-3.333 58.666-12 84.666-24.666 50.667-24.934 82-65.867 98-128.134 1.6-6.133 3.2-12.666 3.467-14.533.4-1.867 1.2-6.4 1.867-10 .666-3.733 1.6-9.333 2-12.667.533-3.333 1.066-7.866 1.466-10 2-14.133 2.534-32 3.867-150.666.267-30.8.8-57.867 1.2-60 .267-2.267 1.067-7.333 1.467-11.333 3.2-25.6 12.8-36.134 42-45.734l12.666-4.266L687.2 234c-.133-5.867-.267-11.467-.4-12.4-.133-1.333-15.333-1.6-73.733-1.333l-73.6.4L539.333 358c-.133 75.467-.666 142.4-1.2 148.666-2.133 23.067-2.666 27.067-4.933 40.667-.8 4.4-1.733 9.467-2 11.333-1.2 6.267-7.2 27.334-9.733 34.134-7.6 19.6-15.067 31.6-28 44.266-19.067 18.8-42.534 29.734-80.134 37.467-6.933 1.333-15.866 2.933-19.6 3.333l-7.066.8V0h-85.333z"/></svg>