<?xml version="1.0" encoding="UTF-8"?>
<!-- Created with Inkscape (http://www.inkscape.org/) -->
<svg id="svg1" width="200mm" height="200mm" version="1.1" viewBox="0 0 200 200" xml:space="preserve" xmlns="http://www.w3.org/2000/svg"><defs id="defs1"><linearGradient id="linearGradient4" x1="35.301" x2="129.94" y1="69.646" y2="123.05" gradientTransform="matrix(1.2244,0,0,1.2244,-17.278,-28.013)" gradientUnits="userSpaceOnUse"><stop id="stop4" stop-color="#ccc4b3" offset="0"/><stop id="stop3" stop-color="#b7ac94" offset="1"/></linearGradient><linearGradient id="linearGradient2" x1="127.34" x2="50.818" y1="143.25" y2="18.743" gradientUnits="userSpaceOnUse"><stop id="stop1" offset="0"/><stop id="stop2" stop-color="#252525" offset="1"/></linearGradient><filter id="filter8" x="-.11109" y="-.10859" width="1.2222" height="1.2172" color-interpolation-filters="sRGB"><feFlood id="feFlood7" flood-color="rgb(0,0,0)" flood-opacity=".49804" in="SourceGraphic" result="flood"/><feGaussianBlur id="feGaussianBlur7" in="SourceGraphic" result="blur" stdDeviation="6.000000"/><feOffset id="feOffset7" dx="0.000000" dy="0.000000" in="blur" result="offset"/><feComposite id="feComposite7" in="flood" in2="offset" operator="in" result="comp1"/><feComposite id="feComposite8" in="SourceGraphic" in2="comp1" result="comp2"/></filter></defs><g id="layer2" transform="matrix(.9545 0 0 .9545 4.5765 4.5505)" filter="url(#filter8)"><path id="path2" d="m80.307 8.3406-2.1864 25.367a70.414 70.414 0 0 0-24.468 13.576l-22.353-10.459-20.041 34.774 19.725 13.668a70.414 70.414 0 0 0-1.8924 15.426 70.414 70.414 0 0 0 1.5622 13.906l-19.674 13.738 20.094 34.743 21.389-10.102a70.414 70.414 0 0 0 26.004 14.829l2.0583 23.886 40.136-0.031 2.0355-24.658a70.414 70.414 0 0 0 24.563-14.739l22.843 10.789 20.094-34.743-21.55-15.048a70.414 70.414 0 0 0 1.2718-12.571 70.414 70.414 0 0 0-1.5601-14.661l21.339-14.786-20.041-34.774-23.88 11.173a70.414 70.414 0 0 0-23.205-13.466l-2.1301-25.807-40.136-0.031006zm20.281 66.937a24.739 24.739 0 0 1 24.739 24.739 24.739 24.739 0 0 1-24.739 24.74 24.739 24.739 0 0 1-24.739-24.74 24.739 24.739 0 0 1 24.739-24.739z" fill="url(#linearGradient4)" stroke="url(#linearGradient2)" stroke-linecap="round" stroke-linejoin="round" stroke-width="11.02"/></g></svg>
