<?xml version="1.0" encoding="UTF-8"?>
<!-- Created with Inkscape (http://www.inkscape.org/) -->
<svg id="svg1" width="200mm" height="200mm" version="1.1" viewBox="0 0 200 200" xml:space="preserve" xmlns="http://www.w3.org/2000/svg" xmlns:xlink="http://www.w3.org/1999/xlink"><defs id="defs1"><linearGradient id="linearGradient6" x1="24.124" x2="185.03" y1="65.065" y2="142.59" gradientTransform="matrix(1.0515 0 0 1.0515 -5.1055 -1.1936)" gradientUnits="userSpaceOnUse"><stop id="stop5" stop-color="#e9c6af" offset="0"/><stop id="stop6" stop-color="#dca889" offset="1"/></linearGradient><linearGradient id="linearGradient8" x1="70.525" x2="133.78" y1="68.474" y2="128.34" gradientTransform="translate(0 3.9688)" gradientUnits="userSpaceOnUse"><stop id="stop7" stop-color="#6997e2" offset="0"/><stop id="stop8" stop-color="#3d7bdb" offset="1"/></linearGradient></defs><g id="layer4"><path id="path1-6" d="m14.583 104.79c42.912 50.182 129.4 53.198 171.38 1.0293-45.052-51.481-127.93-54.507-171.38-1.0293z" fill="#fcf8f7" style="paint-order:stroke fill markers"/><circle id="path2" cx="98.409" cy="103.13" r="44.34" fill="#1c4c97" style="paint-order:stroke fill markers"/><circle id="path3" cx="98.409" cy="103.13" r="37.987" fill="url(#linearGradient8)" style="paint-order:stroke fill markers"/><circle id="path4" cx="98.409" cy="103.13" r="19.27" fill="#0d0d0d" style="paint-order:stroke fill markers"/><circle id="path5" cx="104.96" cy="95.268" r="8.419" fill="#f9f9f9" style="paint-order:stroke fill markers"/><path id="path6" d="m30.495 91.9c-1.6214 12.036 0.31182 21.827 2.9934 29.934l-19.27-13.657z" fill="#d17861" stroke-linecap="round" stroke-width="8" style="paint-order:stroke fill markers"/><path id="path1-8" d="m-12.718 106.14c63.72 73.755 175.58 63.883 221.37-8.4902-66.203-77.753-145.86-76.597-221.37 8.4902zm195.3-6.3759c-47.979 51.302-110.98 46.839-170.27 6.9645 46.36-46.481 106.83-67.604 170.27-6.9645z" fill="#764223" fill-opacity=".50196" style="paint-order:stroke fill markers"/><path id="path1" d="m0.77606 105.25c55.952 64.763 154.17 56.095 194.39-7.4551-58.133-68.274-128.08-67.259-194.39 7.4551zm171.49-5.5986c-42.13 45.047-97.45 41.129-149.51 6.1155 40.709-40.815 93.805-59.362 149.51-6.1155z" fill="url(#linearGradient6)" style="paint-order:stroke fill markers"/></g></svg>
