<?xml version="1.0" encoding="UTF-8"?>
<!-- Created with Inkscape (http://www.inkscape.org/) -->
<svg id="svg1" width="200mm" height="200mm" version="1.1" viewBox="0 0 200 200" xml:space="preserve" xmlns="http://www.w3.org/2000/svg"><defs id="defs1"><linearGradient id="linearGradient6" x1="24.124" x2="185.03" y1="65.065" y2="142.59" gradientTransform="matrix(1.0515 0 0 1.0515 -5.1055 -1.1936)" gradientUnits="userSpaceOnUse"><stop id="stop5" stop-color="#e9c6af" offset="0"/><stop id="stop6" stop-color="#dca889" offset="1"/></linearGradient></defs><g id="layer4"><path id="path1-8" d="m-12.718 106.14c63.72 73.755 175.58 63.883 221.37-8.4902-66.203-77.753-145.86-76.597-221.37 8.4902zm195.3-6.3759c-47.979 51.302-110.98 46.839-170.27 6.9645 46.36-46.481 106.83-67.604 170.27-6.9645z" fill="#764223" fill-opacity=".50196" style="paint-order:stroke fill markers"/><path id="path1" d="m0.77606 105.25c55.952 64.763 154.17 56.095 194.39-7.4551-58.133-68.274-128.08-67.259-194.39 7.4551z" fill="url(#linearGradient6)" style="paint-order:stroke fill markers"/></g><path id="path2" d="m22.252 105.9c57.439 31.001 105.19 32.945 149.75-5.9142" fill="none" stroke="#27160c" stroke-linecap="round" stroke-width="8" style="paint-order:stroke fill markers"/><path id="path8" d="m22.875 107.37 1.4426 11.334 10.922-6.1824 4.1216 14.013 12.777-6.1824 4.5337 12.571 10.098-7.4189 5.7702 11.747 9.6857-7.4189 7.831 9.4796 7.2128-10.304 10.716 11.128 8.2432-11.953 11.54 8.8614 4.3277-13.601 15.044 8.8614 0.61825-15.662 16.486 4.9459-1.0304-14.838 12.777 4.9459-3.0912-12.159c-35.147 29.879-77.216 45.635-150.03 7.831z" fill="#27160c" stroke="#27160c" stroke-linecap="round" stroke-width="4" style="paint-order:stroke fill markers"/></svg>
