<?xml version="1.0" encoding="UTF-8"?>
<!-- Created with Inkscape (http://www.inkscape.org/) -->
<svg id="svg1" width="200mm" height="200mm" version="1.1" viewBox="0 0 200 200" xml:space="preserve" xmlns="http://www.w3.org/2000/svg" xmlns:xlink="http://www.w3.org/1999/xlink"><defs id="defs1"><linearGradient id="linearGradient2" x1="-30.51" x2="80.639" y1="-19.234" y2="59.839" gradientUnits="userSpaceOnUse"><stop id="stop1" stop-color="#a3b3c2" offset="0"/><stop id="stop2" stop-color="#8599ad" offset="1"/></linearGradient><linearGradient id="linearGradient4" x1="-30.51" x2="80.639" y1="-19.234" y2="59.839" gradientUnits="userSpaceOnUse"><stop id="stop9" stop-color="#8599ad" offset="0"/><stop id="stop10" stop-color="#668099" offset="1"/></linearGradient><filter id="filter42" x="-.72857" y="-.72857" width="2.4571" height="2.4571" color-interpolation-filters="sRGB"><feFlood id="feFlood41" flood-color="rgb(0,0,0)" flood-opacity=".49804" in="SourceGraphic" result="flood"/><feGaussianBlur id="feGaussianBlur41" in="SourceGraphic" result="blur" stdDeviation="6.000000"/><feOffset id="feOffset41" dx="0.000000" dy="0.000000" in="blur" result="offset"/><feComposite id="feComposite41" in="flood" in2="offset" operator="in" result="comp1"/><feComposite id="feComposite42" in="SourceGraphic" in2="comp1" result="comp2"/></filter><linearGradient id="linearGradient30" x1="-30.51" x2="80.639" y1="-19.234" y2="59.839" gradientTransform="translate(2.1942 12.221)" gradientUnits="userSpaceOnUse" xlink:href="#linearGradient4"/><linearGradient id="linearGradient33" x1="-30.51" x2="80.639" y1="-19.234" y2="59.839" gradientTransform="translate(2.1553 5.6482)" gradientUnits="userSpaceOnUse" xlink:href="#linearGradient2"/><linearGradient id="linearGradient34" x1="-30.51" x2="80.639" y1="-19.234" y2="59.839" gradientTransform="translate(2.1553 5.6482)" gradientUnits="userSpaceOnUse" xlink:href="#linearGradient4"/><linearGradient id="linearGradient207" x1="73.952" x2="210.69" y1="74.737" y2="74.737" gradientTransform="translate(-.075726 4.1574)" gradientUnits="userSpaceOnUse"><stop id="stop206" stop-color="#a3b3c2" offset="0"/><stop id="stop207" stop-color="#8599ad" offset="1"/></linearGradient></defs><g id="layer2" stroke-linecap="round" stroke-linejoin="round"><circle id="path2" cx="143.95" cy="163.7" r="14" fill="url(#linearGradient33)" filter="url(#filter42)" stop-color="#000000" stroke="url(#linearGradient34)" stroke-linecap="butt" stroke-linejoin="miter" stroke-width="12" style="font-variation-settings:normal;paint-order:normal"/><path id="path1" transform="matrix(.99608 0 0 1.4001 28.99 60.815)" d="m96.711 27.849-95.261 54.999-1.9e-6 -54.999 1.9e-6 -54.999 47.631 27.5z" fill="url(#linearGradient2)" filter="url(#filter42)" stroke="url(#linearGradient4)" stroke-width="10.161" style="paint-order:normal"/><path id="path11" d="m143.54 128.73s-1.4785-35.485 3.5485-36.963c5.027-1.4785 26.614-18.925 25.135-35.189s-16.56-26.909-30.458-27.501c-13.898-0.59141-29.866 15.081-29.571 33.415" fill="none" filter="url(#filter42)" stop-color="#000000" stroke="url(#linearGradient30)" stroke-linecap="round" stroke-linejoin="miter" stroke-width="29.2" style="font-variation-settings:normal;paint-order:stroke fill markers"/><path id="path34" d="m143.54 128.73s-1.4785-35.485 3.5485-36.963c5.027-1.4785 26.614-18.925 25.135-35.189s-16.56-26.909-30.458-27.501c-13.898-0.59141-29.866 15.081-29.571 33.415" fill="none" stop-color="#000000" stroke="url(#linearGradient207)" stroke-linecap="round" stroke-linejoin="miter" stroke-width="11" style="font-variation-settings:normal;paint-order:normal"/></g></svg>
