<?xml version="1.0" encoding="UTF-8" standalone="no"?>
<!-- Created with Inkscape (http://www.inkscape.org/) -->

<svg
   width="200mm"
   height="200mm"
   viewBox="0 0 200 200"
   version="1.1"
   id="svg1"
   inkscape:version="1.3.2 (091e20e, 2023-11-25, custom)"
   sodipodi:docname="retry.svg"
   xmlns:inkscape="http://www.inkscape.org/namespaces/inkscape"
   xmlns:sodipodi="http://sodipodi.sourceforge.net/DTD/sodipodi-0.dtd"
   xmlns="http://www.w3.org/2000/svg"
   xmlns:svg="http://www.w3.org/2000/svg">
  <sodipodi:namedview
     id="namedview1"
     pagecolor="#ffffff"
     bordercolor="#000000"
     borderopacity="0.25"
     inkscape:showpageshadow="2"
     inkscape:pageopacity="0.0"
     inkscape:pagecheckerboard="0"
     inkscape:deskcolor="#d1d1d1"
     inkscape:document-units="mm"
     inkscape:zoom="1.2226906"
     inkscape:cx="350.86554"
     inkscape:cy="392.98576"
     inkscape:window-width="2510"
     inkscape:window-height="1595"
     inkscape:window-x="4964"
     inkscape:window-y="290"
     inkscape:window-maximized="0"
     inkscape:current-layer="layer1" />
  <defs
     id="defs1" />
  <g
     inkscape:label="Layer 1"
     inkscape:groupmode="layer"
     id="layer1">
    <path
       id="path1"
       style="color:#000000;fill:#084513;fill-opacity:1;stroke:none;stroke-width:8;stroke-linecap:round;stroke-linejoin:round;stroke-dasharray:none;stroke-opacity:0.40192309;paint-order:stroke fill markers"
       d="m 101.85204,23.837821 c -41.939118,-2e-6 -76.131264,34.191634 -76.131265,76.130754 v 1.682065 l -5.325773,-5.326287 a 9,9 0 0 0 -6.365503,-2.634981 9,9 0 0 0 -6.3634359,2.634981 9,9 0 0 0 0,12.728427 l 20.7248329,20.72638 a 9,9 0 0 0 6.36912,2.63601 9,9 0 0 0 6.369121,-2.63601 L 61.85552,109.05278 a 9,9 0 0 0 0,-12.728427 9,9 0 0 0 -6.364986,-2.634981 9,9 0 0 0 -6.363436,2.634981 l -5.405871,5.405867 v -1.761645 c 0,-32.211217 25.919597,-58.13082 58.130813,-58.130819 32.21122,-10e-7 58.13082,25.919601 58.13082,58.130819 a 9,9 0 0 0 8.99997,8.999965 9,9 0 0 0 8.99997,-8.999965 c 0,-41.939122 -34.19164,-76.130756 -76.13076,-76.130754 z" />
    <g
       id="g5"
       transform="matrix(0.97490893,0,0,0.97490893,24.579462,5.6899583)"
       style="stroke:#e50000;stroke-width:18.4633;stroke-dasharray:none;stroke-opacity:1">
      <path
         style="fill:none;fill-opacity:1;stroke:#e50000;stroke-width:18.4633;stroke-linecap:round;stroke-linejoin:round;stroke-dasharray:none;stroke-opacity:1;paint-order:stroke fill markers"
         d="m 127.15456,112.92426 42.38485,42.38486"
         id="path4" />
      <path
         style="fill:none;fill-opacity:1;stroke:#e50000;stroke-width:18.4633;stroke-linecap:round;stroke-linejoin:round;stroke-dasharray:none;stroke-opacity:1;paint-order:stroke fill markers"
         d="m 169.53941,112.92426 -42.38485,42.38486"
         id="path5" />
    </g>
  </g>
</svg>
