<?xml version="1.0" encoding="UTF-8"?>
<!-- Created with Inkscape (http://www.inkscape.org/) -->
<svg id="svg1" width="200mm" height="200mm" version="1.1" viewBox="0 0 200 200" xmlns="http://www.w3.org/2000/svg" xmlns:xlink="http://www.w3.org/1999/xlink">
 <defs id="defs1">
  <linearGradient id="linearGradient3">
   <stop id="stop3" stop-color="#1ad4e5" offset="0"/>
   <stop id="stop4" stop-color="#47dceb" offset="1"/>
  </linearGradient>
  <linearGradient id="linearGradient11">
   <stop id="stop11" stop-color="#404040" offset="0"/>
   <stop id="stop12" stop-color="#262626" offset="1"/>
  </linearGradient>
  <filter id="filter25" x="-.28829" y="-.28829" width="1.5766" height="1.5766" color-interpolation-filters="sRGB">
   <feFlood id="feFlood23" flood-color="rgb(0,0,0)" flood-opacity=".49804" in="SourceGraphic" result="flood"/>
   <feGaussianBlur id="feGaussianBlur23" in="SourceGraphic" result="blur" stdDeviation="3.000000"/>
   <feOffset id="feOffset23" dx="0.000000" dy="0.000000" in="blur" result="offset"/>
   <feComposite id="feComposite24" in="flood" in2="offset" operator="in" result="comp1"/>
   <feComposite id="feComposite25" in="SourceGraphic" in2="comp1" result="comp2"/>
  </filter>
  <linearGradient id="linearGradient5">
   <stop id="stop5" stop-color="#2dd22d" offset="0"/>
   <stop id="stop6" stop-color="#28bd28" offset="1"/>
  </linearGradient>
  <filter id="filter23" x="-.06899" y="-.11423" width="1.138" height="1.2285" color-interpolation-filters="sRGB">
   <feFlood id="feFlood22" flood-color="rgb(0,0,0)" flood-opacity=".49804" in="SourceGraphic" result="flood"/>
   <feGaussianBlur id="feGaussianBlur22" in="SourceGraphic" result="blur" stdDeviation="3.000000"/>
   <feOffset id="feOffset22" dx="0.000000" dy="0.000000" in="blur" result="offset"/>
   <feComposite id="feComposite22" in="flood" in2="offset" operator="in" result="comp1"/>
   <feComposite id="feComposite23" in="SourceGraphic" in2="comp1" result="comp2"/>
  </filter>
  <linearGradient id="linearGradient9">
   <stop id="stop9" stop-color="#404040" offset="0"/>
   <stop id="stop10" stop-color="#2e2e2e" offset="1"/>
  </linearGradient>
  <filter id="filter20" x="-.08917" y="-.08917" width="1.1783" height="1.1783" color-interpolation-filters="sRGB">
   <feFlood id="feFlood19" flood-color="rgb(0,0,0)" flood-opacity=".49804" in="SourceGraphic" result="flood"/>
   <feGaussianBlur id="feGaussianBlur19" in="SourceGraphic" result="blur" stdDeviation="4.500000"/>
   <feOffset id="feOffset19" dx="0.000000" dy="0.000000" in="blur" result="offset"/>
   <feComposite id="feComposite19" in="flood" in2="offset" operator="in" result="comp1"/>
   <feComposite id="feComposite20" in="SourceGraphic" in2="comp1" result="comp2"/>
  </filter>
  <linearGradient id="linearGradient32" x1="19.113" x2="149.29" y1="20.285" y2="150.46" gradientTransform="matrix(.50045 0 0 .50045 5.6573 4.1285)" gradientUnits="userSpaceOnUse" xlink:href="#linearGradient3"/>
  <linearGradient id="linearGradient33" x1="55.329" x2="90.363" y1="35.37" y2="70.404" gradientTransform="translate(-1.1947 -1.5781)" gradientUnits="userSpaceOnUse" xlink:href="#linearGradient11"/>
  <linearGradient id="linearGradient34" x1="51.921" x2="162.78" y1="75.283" y2="186.14" gradientTransform="translate(-1.1947 -1.5781)" gradientUnits="userSpaceOnUse" xlink:href="#linearGradient5"/>
  <linearGradient id="linearGradient35" x1="51.921" x2="162.78" y1="75.283" y2="186.14" gradientTransform="translate(-1.1947 -1.5781)" gradientUnits="userSpaceOnUse" xlink:href="#linearGradient11"/>
  <linearGradient id="linearGradient36" x1="11.219" x2="188" y1="11.17" y2="189.28" gradientTransform="translate(-1.1947 -1.5781)" gradientUnits="userSpaceOnUse" xlink:href="#linearGradient9"/>
 </defs>
 <g id="layer1">
  <g id="g38" transform="matrix(1.4449 0 0 1.4449 49.004 -7.0024)">
   <rect id="rect37" x="11.324" y="10.561" width="88.061" height="87.142" fill="url(#linearGradient32)" style="paint-order:fill markers stroke"/>
   <circle id="circle37" transform="matrix(.50045 0 0 .50045 6.2552 4.9183)" cx="72.031" cy="50.624" r="21.159" fill="#eaea48" filter="url(#filter25)" stroke="url(#linearGradient33)" stroke-linecap="round" stroke-linejoin="round" stroke-width="10" style="paint-order:fill markers stroke"/>
   <path id="path37" transform="matrix(.50045 0 0 .50045 6.2552 4.9183)" d="m115.55 164.14-70.08-70.08-34.734 34.734-0.30603 58.604h176.73l0.1052-70.367-37.441-36.436-58.91 58.91z" fill="url(#linearGradient34)" filter="url(#filter23)" stroke="url(#linearGradient35)" stroke-linecap="round" stroke-linejoin="round" stroke-width="10" style="paint-order:fill markers stroke"/>
   <rect id="rect38" transform="matrix(.50045 0 0 .50045 6.2552 4.9183)" x="10.128" y="10.051" width="177.19" height="177.19" fill-opacity="0" filter="url(#filter20)" stroke="url(#linearGradient36)" stroke-linecap="round" stroke-linejoin="round" stroke-width="10" style="paint-order:stroke fill markers"/>
  </g>
  <g id="g43" transform="matrix(1.4449 0 0 1.4449 19.574 21.562)">
   <rect id="rect42" x="11.324" y="10.561" width="88.061" height="87.142" fill="url(#linearGradient32)" style="paint-order:fill markers stroke"/>
   <circle id="circle42" transform="matrix(.50045 0 0 .50045 6.2552 4.9183)" cx="72.031" cy="50.624" r="21.159" fill="#eaea48" filter="url(#filter25)" stroke="url(#linearGradient33)" stroke-linecap="round" stroke-linejoin="round" stroke-width="10" style="paint-order:fill markers stroke"/>
   <path id="path42" transform="matrix(.50045 0 0 .50045 6.2552 4.9183)" d="m115.55 164.14-70.08-70.08-34.734 34.734-0.30603 58.604h176.73l0.1052-70.367-37.441-36.436-58.91 58.91z" fill="url(#linearGradient34)" filter="url(#filter23)" stroke="url(#linearGradient35)" stroke-linecap="round" stroke-linejoin="round" stroke-width="10" style="paint-order:fill markers stroke"/>
   <rect id="rect43" transform="matrix(.50045 0 0 .50045 6.2552 4.9183)" x="10.128" y="10.051" width="177.19" height="177.19" fill-opacity="0" filter="url(#filter20)" stroke="url(#linearGradient36)" stroke-linecap="round" stroke-linejoin="round" stroke-width="10" style="paint-order:stroke fill markers"/>
  </g>
  <g id="g32" transform="matrix(1.4449 0 0 1.4449 -7.9082 50.126)">
   <rect id="rect31" x="11.324" y="10.561" width="88.061" height="87.142" fill="url(#linearGradient32)" style="paint-order:fill markers stroke"/>
   <circle id="circle31" transform="matrix(.50045 0 0 .50045 6.2552 4.9183)" cx="72.031" cy="50.624" r="21.159" fill="#eaea48" filter="url(#filter25)" stroke="url(#linearGradient33)" stroke-linecap="round" stroke-linejoin="round" stroke-width="10" style="paint-order:fill markers stroke"/>
   <path id="path31" transform="matrix(.50045 0 0 .50045 6.2552 4.9183)" d="m115.55 164.14-70.08-70.08-34.734 34.734-0.30603 58.604h176.73l0.1052-70.367-37.441-36.436-58.91 58.91z" fill="url(#linearGradient34)" filter="url(#filter23)" stroke="url(#linearGradient35)" stroke-linecap="round" stroke-linejoin="round" stroke-width="10" style="paint-order:fill markers stroke"/>
   <rect id="rect32" transform="matrix(.50045 0 0 .50045 6.2552 4.9183)" x="10.128" y="10.051" width="177.19" height="177.19" fill-opacity="0" filter="url(#filter20)" stroke="url(#linearGradient36)" stroke-linecap="round" stroke-linejoin="round" stroke-width="10" style="paint-order:stroke fill markers"/>
  </g>
 </g>
</svg>
